<?xml version="1.0" standalone="no"?><!DOCTYPE svg PUBLIC "-//W3C//DTD SVG 1.1//EN" "http://www.w3.org/Graphics/SVG/1.1/DTD/svg11.dtd"><svg class="icon" width="256px" height="226.18px" viewBox="0 0 1159 1024" version="1.1" xmlns="http://www.w3.org/2000/svg"><path d="M1102.172685 209.329957C1060.018364 91.711467 947.212308 6.960601 815.572726 6.960601h-416.08045c-131.652589 0-244.445638 84.750866-286.59996 202.369356zM119.603711 780.526863c36.535479 127.074273 154.127957 220.734646 292.543966 220.734646h416.067443c138.41601 0 256.008487-93.647366 292.543966-220.734646z" fill="#F7B52C" /><path d="M64.182679 317.011422m23.398835 0l1039.901973 0q23.398835 0 23.398835 23.398834l0 100.189675q0 23.398835-23.398835 23.398835l-1039.901973 0q-23.398835 0-23.398835-23.398835l0-100.189675q0-23.398835 23.398835-23.398834Z" fill="#B6481D" /><path d="M64.182679 609.542381m23.398835 0l1039.901973 0q23.398835 0 23.398835 23.398835l0 100.189675q0 23.398835-23.398835 23.398835l-1039.901973 0q-23.398835 0-23.398835-23.398835l0-100.189675q0-23.398835 23.398835-23.398835Z" fill="#B6481D" /><path d="M74.158725 228.722766m23.398835 0l1038.120072 0q23.398835 0 23.398835 23.398835l0 22.098177q0 23.398835-23.398835 23.398835l-1038.120072 0q-23.398835 0-23.398835-23.398835l0-22.098177q0-23.398835 23.398835-23.398835Z" fill="#E95513" /><path d="M1118.899145 584.959947h-76.361623s-102.90805 69.650228-133.174358 71.211018c-39.357907 2.029026-126.319891-71.211018-126.319892-71.211018s-45.991262 70.586702-71.198011 71.198012c-27.534927 0.663336-113.976648-71.198011-113.976648-71.198012s-51.558078 63.316025-78.949932 62.015367c-23.216743-1.105559-96.456787-62.015367-96.456787-62.015367H76.851087a21.486868 21.486868 0 0 1-21.434842-21.395821v-74.553709a21.499874 21.499874 0 0 1 21.434842-21.434841h1042.048058a21.499874 21.499874 0 0 1 21.434842 21.434841v74.553709a21.499874 21.499874 0 0 1-21.434842 21.395821z" fill="#00913A" /><path d="M175.961216 90.853033c18.820519 0 18.859539-29.251795 0-29.251796s-18.859539 29.251795 0 29.251796zM288.455114 37.578087c18.820519 0 18.846532-29.251795 0-29.251796s-18.859539 29.251795 0 29.251796z" fill="#40210F" /><path d="M356.180369 0.054107a337.000452 337.000452 0 0 0-71.614222 8.792448c-18.339276 4.279164-10.574348 32.516447 7.803947 28.211269a299.606538 299.606538 0 0 1 63.836288-7.803948c18.807513-0.286145 18.859539-29.53794 0-29.251795z" fill="#40210F" /><path d="M358.911751 0.041101h-2.731382a15.061618 15.061618 0 0 0-10.34023 4.279164 10.938533 10.938533 0 0 0-3.030533 4.708382 11.029579 11.029579 0 0 0-1.300658 5.631848 14.801486 14.801486 0 0 0 4.292171 10.405263 15.113644 15.113644 0 0 0 10.34023 4.279164h2.731382a15.087631 15.087631 0 0 0 10.405263-4.279164 11.029579 11.029579 0 0 0 3.017526-4.708381 10.951539 10.951539 0 0 0 1.300658-5.644856 14.762467 14.762467 0 0 0-4.279165-10.405262 15.139658 15.139658 0 0 0-10.405262-4.279165z" fill="#40210F" /><path d="M168.573479 63.591244a329.066439 329.066439 0 0 0-110.373826 149.575654c-3.303671 9.104605 5.202631 18.521368 14.099131 18.521368h867.265655c40.021242 0 80.380656 1.534776 120.375886 0h1.638828c8.883493 0 17.402802-9.442776 14.112138-18.521368a325.892834 325.892834 0 0 0-129.93572-163.180535C894.093441 16.858607 833.69089 0.11914 772.468924 0.067114q-118.854115-0.117059-237.695224 0h-89.5633c-18.833526 0-18.859539 29.251795 0 29.251795h318.244965c47.005775 0 92.723899 7.37473 135.437503 27.990157 68.479636 33.023703 122.573997 92.086577 148.587154 163.635766l14.099131-18.521368H112.567152c-12.616381 0-26.091197-1.300658-38.655552 0a13.773967 13.773967 0 0 1-1.638829 0l14.112138 18.521368a293.753578 293.753578 0 0 1 96.964043-132.120826c6.321197-4.825441 9.494802-12.538342 5.202632-20.004118-3.537789-6.217145-13.747954-10.041079-20.017125-5.202631zM64.911048 792.115725c31.215789 106.731984 117.553457 192.367298 225.338974 220.903731 53.496058 14.164164 109.879576 10.574348 164.702305 10.574349h308.867222c21.17471 0 42.193341 0.156079 63.263999-2.601316 110.555918-14.307236 208.547481-87.001004 252.925927-189.609903a335.25757 335.25757 0 0 0 14.307237-39.305881c2.679355-9.104605-4.721388-18.521368-14.099131-18.521368H202.520649c-40.502486 0-81.317129-1.469743-121.806608 0h-1.703862c-18.820519 0-18.859539 29.264802 0 29.264802h960.04158c12.902526 0 26.559434 1.300658 39.409933 0a15.126651 15.126651 0 0 1 1.716869 0L1066.066423 784.298771c-29.511927 100.944057-112.910109 179.867976-215.58404 203.136745-48.20238 10.886506-100.345754 6.893487-149.471602 6.893487H482.61732c-44.755637 0-90.473761 2.601316-135.177372-0.949481-105.249234-8.350223-198.610455-77.116005-241.376086-172.987495a283.205243 283.205243 0 0 1-12.941545-36.041229c-5.267664-18.053131-33.517953-10.37925-28.211269 7.764927zM1086.889955 457.079267H91.678586c-14.489329 0-29.472907 1.105559-43.923216 0-13.279717-1.014513-9.533822-18.833526-9.533822-28.198263v-74.371616c0-6.997539 0-14.060111 8.779441-15.165671 0.819414-0.104053 1.703862 0 2.523276 0 5.826947-0.208105 11.705921 0 17.532868 0H1081.414186c6.646362 0 13.175664 0.130066 14.307236 8.831467 0.832421 6.750414 0 14.151158 0 20.940591v72.277558c0 6.750414 0.49425 15.178677-8.77944 15.685934-18.729473 1.014513-18.846532 30.279315 0 29.251795 21.369809-1.157585 37.172802-16.713454 38.031236-38.226335 0.299151-7.45277 0-14.970572 0-22.423341 0-24.621453 0.208105-49.242907 0-73.86436-0.195099-23.255763-15.126651-41.022749-39.110782-41.725104-5.202631-0.156079-10.405263 0-15.607895 0H210.948912c-53.873249 0-107.77251-0.676342-161.632752 0-22.111184 0.273138-39.500979 15.542861-40.320394 38.226334-0.806408 21.62994 0 43.441973 0 65.032893 0 23.411841-5.033546 53.730176 18.859539 67.725255 8.285191 4.851454 16.908552 5.202631 26.013157 5.202632h1033.021493c18.820519 0.052026 18.859539-29.199769 0-29.199769z" fill="#40210F" /><path d="M1086.889955 749.5582H91.678586c-14.489329 0-29.472907 1.105559-43.923216 0-13.279717-1.014513-9.533822-18.833526-9.533822-28.185256v-74.332597c0-6.997539 0-14.060111 8.779441-15.16567 0.819414-0.104053 1.703862 0 2.523276 0 5.826947-0.208105 11.705921 0 17.532868 0H1081.414186c6.646362 0 13.175664 0.143072 14.307236 8.831466 0.832421 6.750414 0 14.151158 0 20.940592v72.30357c0 6.763421 0.49425 15.178677-8.77944 15.685934-18.729473 1.014513-18.846532 30.279315 0 29.251796 21.369809-1.157585 37.172802-16.713454 38.031236-38.226335 0.299151-7.439763 0-14.970572 0-22.423341 0-24.621453 0.208105-49.242907 0-73.86436-0.195099-23.255763-15.126651-41.022749-39.110782-41.725105-5.202631-0.156079-10.405263 0-15.607895 0H210.948912c-53.873249 0-107.77251-0.676342-161.632752 0-22.111184 0.273138-39.500979 15.607894-40.320394 38.226335-0.806408 21.62994 0 43.441973 0 65.032893 0 23.411841-5.033546 53.730176 18.859539 67.725255 8.285191 4.851454 16.908552 5.202631 26.013157 5.202631h1033.021493c18.820519 0.026013 18.859539-29.277808 0-29.277808zM1095.071093 290.699113H59.955541a26.247276 26.247276 0 0 1-2.861447 0c-8.85748-1.092553-8.909506-7.881987-8.909506-15.087631 0-10.34023-2.601316-23.958118 10.899512-24.556421 5.202631-0.234118 10.405263 0 15.607895 0h986.887158c10.847487 0 22.605434-1.300658 33.400894 0 8.779441 1.053533 8.870487 7.94702 8.870487 15.087632 0 7.960026 3.121579 23.906091-8.779441 24.55642-18.729473 1.014513-18.846532 30.279315 0 29.251795 21.265756-1.157585 37.107769-16.557375 38.031236-38.031236 0.45523-10.496309 1.300658-23.203736-1.716868-33.361874-5.345704-17.649927-21.851052-26.61146-39.292874-26.767538-16.570381-0.143072-33.140762 0-49.711144 0H202.312544c-47.799176 0-95.663386-0.702355-143.449555 0-22.111184 0.338171-39.019736 15.855019-39.95621 38.252347-0.442224 11.185658-1.469743 24.855572 2.601316 35.403907 5.800934 14.983579 19.717973 23.880078 35.520966 24.504394 11.588862 0.45523 23.307789 0 34.909657 0H1095.071093c18.833526 0 18.859539-29.251795 0-29.251795z" fill="#40210F" /><path d="M1078.305614 578.040448h-68.141466c-6.906493 0-12.382263 0.156079-18.430322 3.901973-8.93552 5.527796-17.597901 11.549842-26.4944 17.168684-25.648973 16.206197-53.730176 34.038216-80.74484 45.132828a99.604379 99.604379 0 0 1-15.464822 4.968513c-3.550796 0.806408 2.341184-0.104053 0.221112 0a24.478381 24.478381 0 0 1-3.238639 0 37.393914 37.393914 0 0 1-8.415256-1.508763c-14.502335-3.901974-27.873098-11.588862-40.619545-19.301763a510.859388 510.859388 0 0 1-64.187465-46.134334c-7.41375-6.230151-17.493848-5.423743-22.969618 2.9655-5.996033 9.104605-12.447296 18.105157-19.249737 26.702506-9.911013 12.538342-23.906091 30.994677-37.484959 36.613518a29.160749 29.160749 0 0 0-3.342691 0.897454c2.224125-0.702355 0.94948 0-0.481243-0.338171 3.901974 1.053533-0.364184-0.156079-1.222619-0.41621-1.742882-0.546276-3.472756-1.040526-5.202631-1.664842-4.955506-1.820921-13.643901-6.581329-19.952092-10.327224a532.775473 532.775473 0 0 1-48.852709-33.582986c-8.675388-6.503289-17.649927-13.578868-26.416361-20.810526-5.605835-4.643349-15.334756-6.503289-20.693467 0a350.033044 350.033044 0 0 1-31.553959 33.726059c-7.973033 7.491789-16.31025 14.736454-25.870085 20.134183a42.27138 42.27138 0 0 1-9.039572 3.901974c0.780395-0.221112-4.201125-0.273138-0.234119 0.325165a34.623512 34.623512 0 0 1-5.839954-1.59981 13.461809 13.461809 0 0 1-3.394717-1.456736q-3.095566-1.508763-6.113091-3.134586c-4.851454-2.601316-9.572842-5.527796-14.216191-8.506302-9.80696-6.282177-19.301763-13.006579-28.614473-19.991112-10.587355-7.803947-20.251243-17.012605-31.280821-24.491387-5.904987-3.99302-12.525335-3.134585-19.31477-3.134586H61.399271c-7.934013 0-16.453322 0.884447-24.348315 0-11.315723-1.300658-7.595842-18.20921-7.595842-26.416361 0-17.623914-0.741375-35.416914 0-53.014814 0.468237-11.146638 11.705921-8.701401 19.861046-8.701401H1040.703595c11.458796 0 22.930598-0.104053 34.389394 0 4.877467 0 9.104605 0.611309 10.015065 6.80244 0.689349 4.682368 0 9.963039 0 14.671421v55.017828c0 5.202631 0.130066 11.198664-6.80244 11.70592-18.70346 1.170592-18.833526 30.435394 0 29.251796 15.750967-0.9885 29.798072-10.054085 34.493446-25.674987 1.820921-6.100085 1.573796-12.369256 1.573796-18.638427v-53.235926c0-4.37021 0.182092-8.779441 0-13.136644-0.676342-15.711947-10.262191-29.915131-25.687993-34.48044a48.007282 48.007282 0 0 0-13.838999-1.586803c-30.747552-0.208105-61.50811 0-92.255662 0H42.331627c-1.977 0-3.980013-0.078039-5.957013 0-21.538894 0.858434-35.898157 17.246723-36.223321 38.291368-0.247125 16.68744 0 33.387887 0 50.062321 0 17.038618-2.354191 35.703058 11.510822 48.579571 16.115151 14.970572 47.669111 9.715914 67.829307 9.715914h302.37694l-10.34023-4.279164c23.021644 19.119671 47.096821 37.927183 72.83684 53.157886 13.773967 8.142118 29.12173 16.245217 45.523025 11.549842 18.729473-5.384724 34.779591-20.030131 48.514538-33.218802a357.680912 357.680912 0 0 0 29.212776-31.488926h-20.628434c25.388841 21.070657 52.026314 41.543012 80.341636 58.529603 14.307236 8.532316 32.867624 19.991111 50.244414 16.206197 19.288756-4.188118 34.961683-22.514388 47.083814-36.87365a419.293075 419.293075 0 0 0 30.435394-40.82765l-22.969618 2.9655c32.152262 27.014664 67.998393 54.21142 107.39532 69.494149 9.468789 3.680862 19.978105 6.620349 30.240295 5.917993s19.835032-4.721388 29.147743-8.74042c22.982624-9.871993 44.78165-22.878572 66.047406-35.885151 14.996585-9.169638 29.850098-18.612414 44.404459-28.458394l-7.37473 2.003013h76.322604c18.859539-0.052026 18.859539-29.303822 0-29.303821z" fill="#40210F" /><path d="M104.490066 653.699715h-1.729875a15.087631 15.087631 0 0 0-10.405262 4.279165 11.055592 11.055592 0 0 0-3.030533 4.708381 11.211671 11.211671 0 0 0-1.300658 5.644855 14.801486 14.801486 0 0 0 4.292171 10.405263 15.178677 15.178677 0 0 0 10.405263 4.279165h1.729875a15.087631 15.087631 0 0 0 10.405263-4.279165 16.336263 16.336263 0 0 0 4.279164-10.405263 14.78848 14.78848 0 0 0-4.279164-10.405263 15.20469 15.20469 0 0 0-10.405263-4.279164zM187.15988 679.504767c18.833526 0 18.859539-29.251795 0-29.251795s-18.846532 29.251795 0 29.251795zM287.076417 674.341156H288.793285a15.087631 15.087631 0 0 0 10.34023-4.279165 11.055592 11.055592 0 0 0 3.030533-4.708381 11.211671 11.211671 0 0 0 1.300658-5.644855 14.801486 14.801486 0 0 0-4.292171-10.34023 15.178677 15.178677 0 0 0-10.34023-4.279165h-1.716868a15.087631 15.087631 0 0 0-10.405263 4.279165 16.336263 16.336263 0 0 0-4.279165 10.34023 14.78848 14.78848 0 0 0 4.279165 10.405263 15.20469 15.20469 0 0 0 10.405263 4.279164zM306.87243 721.724122v-1.716869a15.100638 15.100638 0 0 0-4.292171-10.405263 16.336263 16.336263 0 0 0-10.34023-4.279164 14.736454 14.736454 0 0 0-10.34023 4.279164 15.217697 15.217697 0 0 0-4.292171 10.405263v1.716869a15.100638 15.100638 0 0 0 4.292171 10.34023 10.79546 10.79546 0 0 0 4.708381 3.030532 11.029579 11.029579 0 0 0 5.631849 1.300658 14.775473 14.775473 0 0 0 10.34023-4.292171 15.191684 15.191684 0 0 0 4.292171-10.34023zM253.467418 714.830635v-3.446743a15.087631 15.087631 0 0 0-4.331191-10.34023 16.336263 16.336263 0 0 0-10.405263-4.279165 14.78848 14.78848 0 0 0-10.405263 4.279165 15.20469 15.20469 0 0 0-4.279164 10.34023v3.446743a15.087631 15.087631 0 0 0 4.279164 10.405263 16.336263 16.336263 0 0 0 10.405263 4.279164 14.853513 14.853513 0 0 0 10.405263-4.279164 15.20469 15.20469 0 0 0 4.279164-10.405263zM374.454612 652.360038l-0.299151 1.664842a15.087631 15.087631 0 0 0 10.249184 18.001105 14.840506 14.840506 0 0 0 11.276703-1.48275c3.030533-1.950987 6.074072-5.046553 6.724401-8.740421l0.299152-1.664842a11.28971 11.28971 0 0 0 0.260131-5.839954 10.925526 10.925526 0 0 0-1.742881-5.43675 16.349269 16.349269 0 0 0-8.740421-6.724401 14.892533 14.892533 0 0 0-11.276704 1.469743c-3.017526 1.963993-6.074072 5.059559-6.711394 8.753428zM415.386315 720.007253v-1.664842a15.100638 15.100638 0 0 0-4.292171-10.405263 10.912519 10.912519 0 0 0-4.708381-3.030533 11.159644 11.159644 0 0 0-5.631849-1.300657 14.8275 14.8275 0 0 0-10.34023 4.292171 15.191684 15.191684 0 0 0-4.292171 10.405262v1.729875a15.100638 15.100638 0 0 0 4.292171 10.405263 16.336263 16.336263 0 0 0 10.34023 4.279165 14.736454 14.736454 0 0 0 10.34023-4.279165 15.217697 15.217697 0 0 0 4.292171-10.405263zM368.87479 714.830635v-1.690855a15.061618 15.061618 0 0 0-4.279165-10.405263 10.938533 10.938533 0 0 0-4.708381-3.030533 11.081605 11.081605 0 0 0-5.644855-1.300658 14.801486 14.801486 0 0 0-10.34023 4.292171 15.178677 15.178677 0 0 0-4.279165 10.405263v1.716868a15.087631 15.087631 0 0 0 4.279165 10.405263 16.336263 16.336263 0 0 0 10.34023 4.279165 14.853513 14.853513 0 0 0 10.405263-4.279165 15.20469 15.20469 0 0 0 4.279164-10.405263zM534.24043 735.511095v-1.729875a15.100638 15.100638 0 0 0-4.292171-10.405263 10.912519 10.912519 0 0 0-4.708381-3.030533 11.159644 11.159644 0 0 0-5.631849-1.300658 14.775473 14.775473 0 0 0-10.34023 4.292171 15.191684 15.191684 0 0 0-4.292171 10.405263v1.729875a15.100638 15.100638 0 0 0 4.292171 10.34023 16.336263 16.336263 0 0 0 10.34023 4.279165 14.736454 14.736454 0 0 0 10.34023-4.279165 15.217697 15.217697 0 0 0 4.292171-10.34023zM480.835418 711.383892v-1.716869a15.087631 15.087631 0 0 0-4.279164-10.405263 16.258223 16.258223 0 0 0-10.405263-4.292171 14.801486 14.801486 0 0 0-10.405263 4.292171 15.178677 15.178677 0 0 0-4.279164 10.405263v1.716869a15.087631 15.087631 0 0 0 4.279164 10.405262 16.336263 16.336263 0 0 0 10.405263 4.279165 14.762467 14.762467 0 0 0 10.405263-4.279165 15.20469 15.20469 0 0 0 4.279164-10.405262zM745.259162 736.356523c18.820519 0 18.859539-29.264802 0-29.264802s-18.859539 29.264802 0 29.264802zM875.038803 725.704135l2.913474-8.792448c2.406217-7.270677-2.783408-16.297243-10.223171-17.988098a14.944559 14.944559 0 0 0-17.988098 10.210164l-2.913474 8.792448c-2.419224 7.270677 2.783408 16.297243 10.210164 17.988098a14.983579 14.983579 0 0 0 18.001105-10.210164zM835.160633 679.933985a17.779993 17.779993 0 0 0-4.175112-7.283685 15.842013 15.842013 0 0 0-5.657861-3.732888 14.385276 14.385276 0 0 0-6.659369-1.495756c-3.693868 0-5.111585 0.806408-8.402249 2.211118a16.23221 16.23221 0 0 0-6.724402 8.740421 16.440315 16.440315 0 0 0 1.469744 11.263697 14.78848 14.78848 0 0 0 8.740421 6.724401l3.901973 0.520263a14.437302 14.437302 0 0 0 7.387737-1.990006l0.221112-0.091046-3.485763 1.430723a1.911967 1.911967 0 0 1 0.45523-0.104052l-3.901974 0.520263a4.227138 4.227138 0 0 1 0.702356 0l-3.901974-0.520263a3.42073 3.42073 0 0 1 0.676342 0.221112l-3.485763-1.417717a2.601316 2.601316 0 0 1 0.41621 0.234118l-2.965499-2.276151a3.00452 3.00452 0 0 1 0.520263 0.481243l-2.289158-2.9655a2.601316 2.601316 0 0 1 0.338171 0.611309l-1.469743-3.498769v0.221112a15.24371 15.24371 0 0 0 6.724401 8.74042 10.83448 10.83448 0 0 0 5.43675 1.742882 11.146638 11.146638 0 0 0 5.839953-0.260132 14.8275 14.8275 0 0 0 8.740421-6.724401 14.983579 14.983579 0 0 0 1.469744-11.276703zM976.945346 688.99957v1.066539c0 18.820519 29.264802 18.859539 29.264802 0v-1.066539c0-18.833526-29.264802-18.859539-29.264802 0v1.066539c0 18.820519 29.264802 18.859539 29.264802 0v-1.066539c0-18.833526-29.264802-18.859539-29.264802 0zM951.972715 735.511095l1.716869-1.716868a15.100638 15.100638 0 0 0 4.292171-10.405263 11.198664 11.198664 0 0 0-1.300658-5.631849 11.055592 11.055592 0 0 0-3.030533-4.708381 14.658414 14.658414 0 0 0-10.405263-4.279165 15.230704 15.230704 0 0 0-10.405263 4.279165l-1.729875 1.729875a15.087631 15.087631 0 0 0-4.279164 10.405262 16.336263 16.336263 0 0 0 4.279164 10.405263 14.736454 14.736454 0 0 0 10.34023 4.292171 15.334756 15.334756 0 0 0 10.405263-4.292171zM1069.096956 655.416584h-1.729875a15.100638 15.100638 0 0 0-10.405263 4.292171 10.977552 10.977552 0 0 0-3.030533 4.708381 11.159644 11.159644 0 0 0-1.300658 5.631849 14.74946 14.74946 0 0 0 4.292171 10.405263 15.191684 15.191684 0 0 0 10.405263 4.292171h1.729875a15.100638 15.100638 0 0 0 10.405263-4.292171 16.336263 16.336263 0 0 0 4.279164-10.405263 14.736454 14.736454 0 0 0-4.279164-10.405263 15.217697 15.217697 0 0 0-10.405263-4.292171zM1076.354627 717.874174l-1.690855-3.433736a14.086125 14.086125 0 0 0-14.580375-6.984533 10.951539 10.951539 0 0 0-5.43675 1.729875 14.8275 14.8275 0 0 0-6.724401 8.753427l-0.520263 3.901974a14.541355 14.541355 0 0 0 2.003013 7.37473l1.716868 3.433737a11.107618 11.107618 0 0 0 3.771908 4.097072 10.990559 10.990559 0 0 0 4.98152 2.601316 11.107618 11.107618 0 0 0 5.826947 0.260131 10.79546 10.79546 0 0 0 5.449756-1.755888 14.71044 14.71044 0 0 0 6.724401-8.740421l0.520264-3.901973a14.528348 14.528348 0 0 0-1.990007-7.37473zM76.929126 391.877288h1.716869a15.139658 15.139658 0 0 0 10.405263-4.279164 16.258223 16.258223 0 0 0 4.292171-10.405263 14.775473 14.775473 0 0 0-4.292171-10.405263 15.178677 15.178677 0 0 0-10.405263-4.279164h-1.716869a15.087631 15.087631 0 0 0-10.405263 4.279164 11.029579 11.029579 0 0 0-3.017526 4.708381 10.899513 10.899513 0 0 0-1.300658 5.631849 14.78848 14.78848 0 0 0 4.279165 10.405263 15.20469 15.20469 0 0 0 10.405263 4.279164zM82.092738 431.469313c18.820519 0 18.859539-29.251795 0-29.251795s-18.859539 29.251795 0 29.251795zM151.860026 408.226557v1.716869a15.100638 15.100638 0 0 0 4.292171 10.405263 16.336263 16.336263 0 0 0 10.405263 4.279164 14.736454 14.736454 0 0 0 10.340229-4.279164 15.217697 15.217697 0 0 0 4.292171-10.405263v-1.716869a15.100638 15.100638 0 0 0-4.292171-10.34023 10.912519 10.912519 0 0 0-4.708381-3.030532 11.159644 11.159644 0 0 0-5.631848-1.300658 14.775473 14.775473 0 0 0-10.405263 4.292171 15.191684 15.191684 0 0 0-4.292171 10.34023zM140.661361 388.404532c18.820519 0 18.846532-29.251795 0-29.251796s-18.859539 29.251795 0 29.251796zM248.134721 407.055965l1.131572-3.628835a11.237684 11.237684 0 0 0 0.260131-5.826947 13.201677 13.201677 0 0 0-5.501782-9.546829 11.029579 11.029579 0 0 0-4.98152-2.601316 14.775473 14.775473 0 0 0-11.276704 1.469744 15.724954 15.724954 0 0 0-6.711394 8.74042l-1.131572 3.628836a11.28971 11.28971 0 0 0-0.260132 5.839954 10.925526 10.925526 0 0 0 1.742882 5.436749 16.349269 16.349269 0 0 0 8.74042 6.724402 14.840506 14.840506 0 0 0 11.276704-1.48275 15.607894 15.607894 0 0 0 6.711395-8.740421zM366.299487 348.812506h-1.716868a15.100638 15.100638 0 0 0-10.34023 4.292171 10.938533 10.938533 0 0 0-3.030533 4.695375 11.211671 11.211671 0 0 0-1.300658 5.644855 14.775473 14.775473 0 0 0 4.292171 10.34023 15.178677 15.178677 0 0 0 10.34023 4.279165h1.716868a15.087631 15.087631 0 0 0 10.405263-4.279165 16.336263 16.336263 0 0 0 4.279165-10.34023 14.736454 14.736454 0 0 0-4.279165-10.34023 15.217697 15.217697 0 0 0-10.405263-4.292171zM361.135876 438.3628h1.066539c18.833526 0 18.859539-29.264802 0-29.264802h-1.066539c-18.820519 0-18.859539 29.264802 0 29.264802h1.066539c18.833526 0 18.859539-29.264802 0-29.264802h-1.066539c-18.820519 0-18.859539 29.264802 0 29.264802zM312.062054 401.333071v3.446743a15.035605 15.035605 0 0 0 4.279165 10.34023 10.938533 10.938533 0 0 0 4.708381 3.030533 11.081605 11.081605 0 0 0 5.644855 1.300658 14.801486 14.801486 0 0 0 10.34023-4.292171 15.178677 15.178677 0 0 0 4.279165-10.34023v-3.446744a15.087631 15.087631 0 0 0-4.279165-10.34023 16.336263 16.336263 0 0 0-10.34023-4.279164 14.78848 14.78848 0 0 0-10.405263 4.279164 15.20469 15.20469 0 0 0-4.279164 10.34023zM505.834063 410.827873h-1.768895a15.087631 15.087631 0 0 0-10.34023 4.279164 16.154171 16.154171 0 0 0-4.279164 10.34023 14.78848 14.78848 0 0 0 4.279164 10.405263 15.178677 15.178677 0 0 0 10.34023 4.279165h1.729875a15.087631 15.087631 0 0 0 10.34023-4.279165 16.336263 16.336263 0 0 0 4.279164-10.405263 14.78848 14.78848 0 0 0-4.279164-10.34023 15.20469 15.20469 0 0 0-10.34023-4.279164zM529.948259 340.202151h-1.729875a15.087631 15.087631 0 0 0-10.34023 4.279165 16.154171 16.154171 0 0 0-4.279164 10.405262 14.78848 14.78848 0 0 0 4.279164 10.405263 15.20469 15.20469 0 0 0 10.34023 4.279165h1.729875a15.087631 15.087631 0 0 0 10.405263-4.279165 16.154171 16.154171 0 0 0 4.279165-10.405263 14.78848 14.78848 0 0 0-4.279165-10.405262 15.20469 15.20469 0 0 0-10.405263-4.279165zM434.3369 427.177142v-3.446743a15.100638 15.100638 0 0 0-4.292171-10.34023 16.258223 16.258223 0 0 0-10.34023-4.292171 14.74946 14.74946 0 0 0-10.34023 4.292171 15.191684 15.191684 0 0 0-4.292171 10.34023v3.446743a15.100638 15.100638 0 0 0 4.292171 10.34023 10.977552 10.977552 0 0 0 4.708381 3.030533 11.159644 11.159644 0 0 0 5.631849 1.300658 14.8275 14.8275 0 0 0 10.34023-4.292171 15.191684 15.191684 0 0 0 4.292171-10.34023zM603.27935 443.240267l0.117059 0.247125-1.48275-3.485763a4.98152 4.98152 0 0 1 0.208105 0.754381l-0.520263-3.901973a5.85296 5.85296 0 0 1 0 1.066539l0.520263-3.901973a5.423743 5.423743 0 0 1-0.338171 1.300658l1.469743-3.485763a5.696881 5.696881 0 0 1-0.546276 0.897453l2.289158-2.952493a7.556822 7.556822 0 0 1-0.559283 0.559283l2.952493-2.289158a2.315171 2.315171 0 0 1-0.429217 0.299151 15.399789 15.399789 0 0 0-6.724401 8.753428 16.440315 16.440315 0 0 0 1.469743 11.263697 14.632401 14.632401 0 0 0 20.017125 5.202631 19.509868 19.509868 0 0 0 8.506302-10.964545 16.219204 16.219204 0 0 0 0.689349-5.462763c-0.195099-3.901974-0.806408-5.202631-2.341184-8.662382a11.107618 11.107618 0 0 0-3.771908-4.097072 10.990559 10.990559 0 0 0-4.981519-2.601316 11.107618 11.107618 0 0 0-5.826948-0.260131 10.79546 10.79546 0 0 0-5.43675 1.742881 14.74946 14.74946 0 0 0-6.724401 8.740421l-0.520263 3.901974a14.528348 14.528348 0 0 0 1.990007 7.37473zM681.539933 345.508835l-1.703862 0.182092a11.159644 11.159644 0 0 0-5.631848 1.300658 14.996585 14.996585 0 0 0-8.987546 13.370763 14.736454 14.736454 0 0 0 4.279164 10.34023l2.9655 2.289158a14.541355 14.541355 0 0 0 7.37473 2.003013l1.703862-0.195099a15.035605 15.035605 0 0 0 14.632401-14.658414 14.801486 14.801486 0 0 0-4.292171-10.405263l-2.952493-2.276151a14.619394 14.619394 0 0 0-7.387737-2.003013zM724.578702 413.390169l-1.716869 1.716868a15.100638 15.100638 0 0 0-4.292171 10.34023 11.081605 11.081605 0 0 0 1.300658 5.644856 10.938533 10.938533 0 0 0 3.030533 4.708381 14.697434 14.697434 0 0 0 10.34023 4.279164 15.230704 15.230704 0 0 0 10.405263-4.279164l1.729875-1.729875a15.087631 15.087631 0 0 0 4.279164-10.34023 16.336263 16.336263 0 0 0-4.279164-10.34023 14.762467 14.762467 0 0 0-10.405263-4.292171 15.24371 15.24371 0 0 0-10.405263 4.292171zM779.713588 350.542381h-1.729875a15.087631 15.087631 0 0 0-10.405262 4.279165 16.154171 16.154171 0 0 0-4.279165 10.34023 14.736454 14.736454 0 0 0 4.279165 10.405262 15.191684 15.191684 0 0 0 10.405262 4.292171h1.729875a15.100638 15.100638 0 0 0 10.405263-4.292171 10.79546 10.79546 0 0 0 3.017526-4.695374 10.951539 10.951539 0 0 0 1.300658-5.644856 14.762467 14.762467 0 0 0-4.279164-10.34023 15.20469 15.20469 0 0 0-10.405263-4.279164zM924.385762 370.325387l-1.716868 1.716869a15.087631 15.087631 0 0 0-4.279164 10.405263 16.154171 16.154171 0 0 0 4.279164 10.405262 14.658414 14.658414 0 0 0 10.34023 4.279165 15.256717 15.256717 0 0 0 10.405263-4.279165l1.716868-1.729875a15.087631 15.087631 0 0 0 4.279164-10.34023 16.154171 16.154171 0 0 0-4.279164-10.34023 14.736454 14.736454 0 0 0-10.405263-4.29217 15.334756 15.334756 0 0 0-10.405263 4.29217zM1008.798457 420.270649l-1.729875 1.729875a15.087631 15.087631 0 0 0-4.279164 10.34023 16.336263 16.336263 0 0 0 4.279164 10.34023 14.762467 14.762467 0 0 0 10.405263 4.292171 15.24371 15.24371 0 0 0 10.34023-4.292171l1.716869-1.716868a15.100638 15.100638 0 0 0 4.292171-10.34023 11.211671 11.211671 0 0 0-1.300658-5.644855 11.055592 11.055592 0 0 0-3.030533-4.708382 14.775473 14.775473 0 0 0-10.405263-4.279164 15.230704 15.230704 0 0 0-10.405263 4.279164zM953.676577 417.708353h-1.716868a15.100638 15.100638 0 0 0-10.405263 4.292171 10.977552 10.977552 0 0 0-3.030533 4.708382 11.159644 11.159644 0 0 0-1.300658 5.631848 14.74946 14.74946 0 0 0 4.292171 10.34023 15.191684 15.191684 0 0 0 10.405263 4.292171h1.716869a15.100638 15.100638 0 0 0 10.405262-4.292171 16.336263 16.336263 0 0 0 4.279165-10.34023 14.762467 14.762467 0 0 0-4.279165-10.34023 15.217697 15.217697 0 0 0-10.405262-4.292171zM1057.911298 425.447267v1.729875a15.087631 15.087631 0 0 0 4.279165 10.34023 11.055592 11.055592 0 0 0 4.708381 3.030533 11.198664 11.198664 0 0 0 5.631849 1.300658 14.866519 14.866519 0 0 0 10.405263-4.292171 15.178677 15.178677 0 0 0 4.279164-10.34023v-1.729875a15.087631 15.087631 0 0 0-4.279164-10.34023 16.336263 16.336263 0 0 0-10.405263-4.279164 14.78848 14.78848 0 0 0-10.34023 4.279164 15.20469 15.20469 0 0 0-4.279165 10.34023z" fill="#DD4A2B" /><path d="M265.485496 74.51677l-15.048611 9.442776c-6.503289 4.058053-9.624868 13.22769-5.202631 20.004118 4.188118 6.503289 13.084618 9.598855 20.017124 5.202631l14.996585-9.416763c6.503289-4.071059 9.624868-13.22769 5.202632-20.017124-4.188118-6.503289-13.084618-9.598855-20.017125-5.202632zM446.459031 90.592901c11.848993 7.803947 25.284789 9.689901 39.110782 7.725908 7.803947-1.118566 12.122131-11.081605 10.223171-18.001105-2.315171-8.415256-10.145131-11.341737-18.001105-10.210164-5.202631 0.741375-11.406769-1.378697-16.570381-4.786421-6.594335-4.344197-16.180184-1.300658-20.017125 5.202631-4.175112 7.140612-1.365691 15.607894 5.202632 20.017125zM720.533656 85.156151l13.773966 5.202632c7.179631 2.692362 16.349269-3.00452 18.001105-10.223171 1.885954-8.32421-2.601316-15.100638-10.223171-17.988098l-13.773966-5.202632c-7.179631-2.705368-16.349269 2.991513-17.988099 10.210164-1.89896 8.32421 2.536283 15.113644 10.210165 18.001105zM823.662817 91.28225a26.013157 26.013157 0 0 0 2.601316 9.624868 19.639934 19.639934 0 0 0 3.901974 5.332697 19.978105 19.978105 0 0 0 5.202631 3.901974 25.66198 25.66198 0 0 0 9.806961 2.601315c3.485763 0.364184 7.960026-1.911967 10.405262-4.29217a14.632401 14.632401 0 0 0 0-20.68046l-2.9655-2.289158a14.541355 14.541355 0 0 0-7.37473-2.003013h-0.390197l3.901974 0.520263a8.415256 8.415256 0 0 1-1.859941-0.520263l3.49877 1.469743a8.922513 8.922513 0 0 1-1.664843-0.9885l2.874454 2.263145a10.522322 10.522322 0 0 1-1.378697-1.300658l2.289158 2.9655a10.743434 10.743434 0 0 1-1.001507-1.651836l1.469744 3.485763a8.142118 8.142118 0 0 1-0.53327-1.846934l0.520263 3.901974v-0.390198a16.336263 16.336263 0 0 0-4.279164-10.34023 14.619394 14.619394 0 0 0-20.693467 0c-2.445237 2.666349-4.721388 6.581329-4.279164 10.34023zM871.279902 109.959697l3.472756 3.446743a15.061618 15.061618 0 0 0 10.34023 4.279164 16.336263 16.336263 0 0 0 10.405263-4.279164 14.762467 14.762467 0 0 0 4.292171-10.405263 15.295736 15.295736 0 0 0-4.292171-10.34023l-3.446743-3.446743a15.087631 15.087631 0 0 0-10.405263-4.279165 16.336263 16.336263 0 0 0-10.34023 4.279165 14.762467 14.762467 0 0 0-4.292171 10.405263 15.24371 15.24371 0 0 0 4.292171 10.34023zM670.549374 133.124413a14.489329 14.489329 0 0 1 1.06654 1.977l-1.48275-3.49877a14.138151 14.138151 0 0 1 0.741375 2.705369l-0.53327-3.901974a13.526842 13.526842 0 0 1 0 2.809421l0.520263-3.901973a10.8735 10.8735 0 0 1-0.182092 1.105559 15.607894 15.607894 0 0 0 1.48275 11.263697 14.619394 14.619394 0 0 0 20.004118 5.202631c3.056546-1.977 6.022046-5.033546 6.724401-8.740421 1.300658-6.854467 0.715362-13.852006-3.121579-19.861045a15.399789 15.399789 0 0 0-8.753427-6.724401 14.944559 14.944559 0 0 0-11.263697 1.469743 14.645408 14.645408 0 0 0-5.202632 20.017125zM512.64951 113.627552l-6.88048 8.623361c-2.51027 3.147592-4.279164 6.139105-4.279165 10.405263a14.918546 14.918546 0 0 0 4.279165 10.34023 14.697434 14.697434 0 0 0 10.405263 4.279165c3.615829-0.156079 7.973033-1.300658 10.405262-4.279165l6.880481-8.623361c2.51027-3.147592 4.279164-6.152112 4.279164-10.34023a14.632401 14.632401 0 0 0-14.632401-14.632401c-3.615829 0.169086-7.973033 1.300658-10.34023 4.292171zM414.046637 116.554032l-5.202631 3.446743a15.412796 15.412796 0 0 0-6.711395 8.740421 11.107618 11.107618 0 0 0-0.273138 5.826947 10.925526 10.925526 0 0 0 1.742882 5.43675 14.74946 14.74946 0 0 0 8.740421 6.724401c3.706875 0.845428 7.999046 0.702355 11.276703-1.469743l5.202632-3.446743a15.607894 15.607894 0 0 0 6.724401-8.740421 11.146638 11.146638 0 0 0 0.260131-5.839954 10.951539 10.951539 0 0 0-1.729875-5.43675 14.8275 14.8275 0 0 0-8.753427-6.724401c-3.706875-0.845428-7.999046-0.702355-11.263697 1.48275zM615.492527 138.483124l8.36323 5.553809a14.619394 14.619394 0 0 0 20.017124-5.202632 14.74946 14.74946 0 0 0 1.469744-11.276704 16.011098 16.011098 0 0 0-6.724401-8.74042l-8.389244-5.592829a14.645408 14.645408 0 0 0-20.017124 5.202631 14.74946 14.74946 0 0 0-1.469743 11.276704 16.050118 16.050118 0 0 0 6.711394 8.740421zM786.424983 118.596065a20.628434 20.628434 0 0 0 22.995631 29.824085 15.113644 15.113644 0 0 0 8.753427-6.724402 14.632401 14.632401 0 0 0-16.531361-21.486867 5.033546 5.033546 0 0 1-0.767388 0.169085l3.901973-0.520263a6.581329 6.581329 0 0 1-1.131572 0l3.901974 0.53327a7.192638 7.192638 0 0 1-1.456737-0.429217l3.498769 1.48275a8.545322 8.545322 0 0 1-1.300657-0.819415l2.965499 2.276151a8.987546 8.987546 0 0 1-1.105559-1.118565l2.289158 2.9655a8.81846 8.81846 0 0 1-0.962487-1.703862l1.469744 3.498769a8.40225 8.40225 0 0 1-0.377191-1.495756l0.53327 3.901973a5.488776 5.488776 0 0 1 0-1.131572l-0.520263 3.901974a6.503289 6.503289 0 0 1 0.273138-1.10556l-1.469744 3.49877a3.550796 3.550796 0 0 1 0.351178-0.702355 15.347763 15.347763 0 0 0 1.469743-11.276704 14.918546 14.918546 0 0 0-6.724401-8.740421c-6.88048-3.641842-16.037111-1.89896-20.017124 5.202632zM204.367584 115.994749c-5.371717 0.572289-10.405263 1.755888-14.853513 5.007533a31.293828 31.293828 0 0 0-11.081605 14.697434c-1.300658 3.303671-0.247125 8.337217 1.469743 11.276703a14.996585 14.996585 0 0 0 8.740421 6.724401 14.840506 14.840506 0 0 0 11.276704-1.482749 17.012605 17.012605 0 0 0 6.724401-8.740421l0.247125-0.637323-1.469744 3.49877a16.791493 16.791493 0 0 1 1.716869-2.913474l-2.224125 2.9655a18.20921 18.20921 0 0 1 2.380204-2.419223l-2.952494 2.289158a16.349269 16.349269 0 0 1 3.511777-2.05504l-3.49877 1.469743a16.908552 16.908552 0 0 1 3.277658-0.87144l-3.901974 0.520263 0.676342-0.065033c3.980013-0.416211 7.41375-1.300658 10.34023-4.292171a14.905539 14.905539 0 0 0 4.292171-10.405263 14.74946 14.74946 0 0 0-4.292171-10.34023c-2.679355-2.47125-6.503289-4.682368-10.34023-4.292171z" fill="#F2D384" /><path d="M376.041415 714.024227v-1.716868a15.100638 15.100638 0 0 0-4.292171-10.405263 16.336263 16.336263 0 0 0-10.34023-4.279165 14.78848 14.78848 0 0 0-10.34023 4.279165 15.217697 15.217697 0 0 0-4.292171 10.405263v1.716868a15.100638 15.100638 0 0 0 4.292171 10.405263 10.860493 10.860493 0 0 0 4.721388 3.017526 11.029579 11.029579 0 0 0 5.631848 1.300658 14.74946 14.74946 0 0 0 10.34023-4.292171 15.191684 15.191684 0 0 0 4.292171-10.405263zM597.387369 685.591846c18.833526 0 18.859539-29.251795 0-29.251795s-18.846532 29.251795 0 29.251795zM603.409415 727.8112v-1.664842a15.139658 15.139658 0 0 0-4.279164-10.405263 11.055592 11.055592 0 0 0-4.708382-3.030532 11.211671 11.211671 0 0 0-5.644855-1.300658 14.775473 14.775473 0 0 0-10.34023 4.292171 15.178677 15.178677 0 0 0-4.279164 10.405263v1.729875a15.087631 15.087631 0 0 0 4.279164 10.405262 11.029579 11.029579 0 0 0 4.708382 3.017527 10.899513 10.899513 0 0 0 5.631848 1.300658 14.78848 14.78848 0 0 0 10.405263-4.279165 15.20469 15.20469 0 0 0 4.279165-10.405263zM681.800065 695.086649l1.755888-1.716869a15.087631 15.087631 0 0 0 4.279164-10.405263 16.336263 16.336263 0 0 0-4.279164-10.405263 14.684427 14.684427 0 0 0-10.405263-4.279164 15.256717 15.256717 0 0 0-10.405263 4.279164l-1.716868 1.716869a15.100638 15.100638 0 0 0-4.292171 10.405263 16.258223 16.258223 0 0 0 4.292171 10.405263 14.658414 14.658414 0 0 0 10.405262 4.279164 15.230704 15.230704 0 0 0 10.34023-4.279164zM753.271214 717.47097v-1.066539c0-18.820519-29.264802-18.859539-29.264802 0v1.066539c0 18.820519 29.264802 18.859539 29.264802 0v-1.066539c0-18.820519-29.264802-18.859539-29.264802 0v1.066539c0 18.820519 29.264802 18.859539 29.264802 0zM814.428147 728.656628c18.820519 0 18.859539-29.264802 0-29.264802s-18.859539 29.264802 0 29.264802zM944.207788 718.00424l2.913474-8.792447c2.406217-7.270677-2.783408-16.297243-10.210165-17.988098a14.957565 14.957565 0 0 0-17.936071 10.210164l-2.913474 8.792447c-2.419224 7.270677 2.783408 16.297243 10.210164 17.988098a14.983579 14.983579 0 0 0 18.001105-10.210164zM904.329618 672.23409a17.636921 17.636921 0 0 0-4.175112-7.283684 15.842013 15.842013 0 0 0-5.631848-3.745895 14.385276 14.385276 0 0 0-6.659368-1.495756c-3.693868 0-5.111585 0.806408-8.40225 2.211118a14.073118 14.073118 0 0 0-6.984533 14.567368 10.912519 10.912519 0 0 0 1.729875 5.43675 14.775473 14.775473 0 0 0 8.753427 6.724401l3.901974 0.520263a14.398283 14.398283 0 0 0 7.400743-2.042033l0.221112-0.091046-3.49877 1.469744a1.911967 1.911967 0 0 1 0.455231-0.104053l-3.901974 0.520263a4.227138 4.227138 0 0 1 0.702355 0l-3.901973-0.520263a2.939487 2.939487 0 0 1 0.676342 0.221112l-3.49877-1.48275a2.601316 2.601316 0 0 1 0.416211 0.234118l-2.9655-2.276151a3.00452 3.00452 0 0 1 0.520263 0.481244l-2.289158-2.9655a3.121579 3.121579 0 0 1 0.351178 0.611309l-1.495757-3.433737v0.221112a15.295736 15.295736 0 0 0 6.724401 8.740421 10.83448 10.83448 0 0 0 5.43675 1.742881 11.146638 11.146638 0 0 0 5.839954-0.260131 14.632401 14.632401 0 0 0 10.210164-18.001105zM1021.141701 727.8112l1.716868-1.716868a15.100638 15.100638 0 0 0 4.292171-10.405263 16.258223 16.258223 0 0 0-4.292171-10.405263 14.645408 14.645408 0 0 0-10.405263-4.279164 15.230704 15.230704 0 0 0-10.34023 4.279164l-1.729875 1.729875a15.087631 15.087631 0 0 0-4.279164 10.405263 16.336263 16.336263 0 0 0 4.279164 10.34023 14.762467 14.762467 0 0 0 10.405263 4.292171 15.295736 15.295736 0 0 0 10.34023-4.292171zM209.830347 380.704637c18.820519 0 18.859539-29.251795 0-29.251795s-18.859539 29.251795 0 29.251795zM435.481479 341.151631h-1.729875a15.100638 15.100638 0 0 0-10.34023 4.292171 10.938533 10.938533 0 0 0-3.030533 4.695375 11.094612 11.094612 0 0 0-1.300658 5.644855 14.762467 14.762467 0 0 0 4.279165 10.34023 15.178677 15.178677 0 0 0 10.34023 4.279165h1.729875a15.087631 15.087631 0 0 0 10.405262-4.279165 16.336263 16.336263 0 0 0 4.279165-10.34023 14.736454 14.736454 0 0 0-4.279165-10.405263 15.217697 15.217697 0 0 0-10.405262-4.29217zM381.231039 393.633176v3.446743a15.035605 15.035605 0 0 0 4.279165 10.34023 10.938533 10.938533 0 0 0 4.708381 3.030533 11.081605 11.081605 0 0 0 5.644855 1.300658 14.775473 14.775473 0 0 0 10.34023-4.292171 15.178677 15.178677 0 0 0 4.279165-10.34023v-3.446743a15.087631 15.087631 0 0 0-4.279165-10.405263 16.336263 16.336263 0 0 0-10.34023-4.279164 14.78848 14.78848 0 0 0-10.405262 4.279164 15.20469 15.20469 0 0 0-4.279165 10.405263zM551.50016 362.638499v-3.446743a15.074625 15.074625 0 0 0-4.292171-10.34023 10.821473 10.821473 0 0 0-4.695375-3.030533 11.107618 11.107618 0 0 0-5.644855-1.300658 14.775473 14.775473 0 0 0-10.34023 4.292171 15.061618 15.061618 0 0 0-4.279164 10.34023v3.446744a15.100638 15.100638 0 0 0 4.292171 10.405262 16.336263 16.336263 0 0 0 10.405263 4.279165 14.736454 14.736454 0 0 0 10.34023-4.279165 15.074625 15.074625 0 0 0 4.292171-10.405262zM606.010731 396.208479c18.820519 0 18.846532-29.251795 0-29.251796s-18.859539 29.251795 0 29.251796zM793.747687 405.690274l-1.716869 1.716869a15.100638 15.100638 0 0 0-4.292171 10.34023 11.211671 11.211671 0 0 0 1.300658 5.644855 11.055592 11.055592 0 0 0 3.030533 4.708381 14.723447 14.723447 0 0 0 10.405263 4.279165 15.230704 15.230704 0 0 0 10.34023-4.279165l1.729875-1.729875a15.087631 15.087631 0 0 0 4.279164-10.34023 16.336263 16.336263 0 0 0-4.279164-10.34023 14.74946 14.74946 0 0 0-10.405263-4.29217 15.24371 15.24371 0 0 0-10.405263 4.29217zM993.567754 362.625493l-1.755888 1.716868a15.087631 15.087631 0 0 0-4.279165 10.405263 16.336263 16.336263 0 0 0 4.279165 10.34023 14.658414 14.658414 0 0 0 10.405263 4.279164 15.256717 15.256717 0 0 0 10.405263-4.279164l1.716868-1.729875a15.074625 15.074625 0 0 0 4.292171-10.405263 11.159644 11.159644 0 0 0-1.300658-5.631848 10.977552 10.977552 0 0 0-3.030533-4.708382 14.736454 14.736454 0 0 0-10.405263-4.292171 15.295736 15.295736 0 0 0-10.34023 4.292171zM841.143659 386.752696v1.716868a15.087631 15.087631 0 0 0 4.279165 10.34023 10.938533 10.938533 0 0 0 4.708381 3.030533 11.081605 11.081605 0 0 0 5.644855 1.300658 14.801486 14.801486 0 0 0 10.405263-4.292171 15.178677 15.178677 0 0 0 4.279164-10.34023v-1.716868a15.087631 15.087631 0 0 0-4.279164-10.405263 16.336263 16.336263 0 0 0-10.405263-4.279164 14.78848 14.78848 0 0 0-10.405263 4.279164 15.20469 15.20469 0 0 0-4.279164 10.405263zM1078.85189 372.965723v1.729875a15.087631 15.087631 0 0 0 4.279164 10.34023 16.336263 16.336263 0 0 0 10.34023 4.279164 14.78848 14.78848 0 0 0 10.405263-4.279164 15.20469 15.20469 0 0 0 4.279164-10.34023v-1.729875a15.087631 15.087631 0 0 0-4.279164-10.34023 11.055592 11.055592 0 0 0-4.708381-3.030533 11.211671 11.211671 0 0 0-5.644856-1.300658 14.801486 14.801486 0 0 0-10.340229 4.292171 15.178677 15.178677 0 0 0-4.279165 10.34023zM1077.967442 412.570755l-1.729874 1.729875a15.087631 15.087631 0 0 0-4.279165 10.34023 16.336263 16.336263 0 0 0 4.279165 10.34023 14.762467 14.762467 0 0 0 10.405262 4.29217 15.24371 15.24371 0 0 0 10.405263-4.29217l1.716869-1.716869a15.100638 15.100638 0 0 0 4.292171-10.34023 11.081605 11.081605 0 0 0-1.300658-5.644855 10.938533 10.938533 0 0 0-3.030533-4.708381 14.74946 14.74946 0 0 0-10.34023-4.279165 15.230704 15.230704 0 0 0-10.405263 4.279165zM1022.858569 410.008459h-1.729875a15.100638 15.100638 0 0 0-10.34023 4.292171 10.977552 10.977552 0 0 0-3.030533 4.708381 11.159644 11.159644 0 0 0-1.300658 5.631849 14.801486 14.801486 0 0 0 4.292171 10.34023 15.191684 15.191684 0 0 0 10.34023 4.29217h1.729875a15.100638 15.100638 0 0 0 10.405263-4.29217 10.756441 10.756441 0 0 0 3.017526-4.708382 10.899513 10.899513 0 0 0 1.300658-5.631848 14.762467 14.762467 0 0 0-4.279164-10.34023 15.217697 15.217697 0 0 0-10.405263-4.292171z" fill="#DD4A2B" /><path d="M334.654481 66.842889l-14.996585 9.416762c-6.503289 4.058053-9.624868 13.22769-5.202631 20.004118 4.175112 6.503289 13.071612 9.598855 20.004118 5.202632l15.009592-9.416763c6.503289-4.058053 9.611862-13.22769 5.202631-20.017125-4.188118-6.503289-13.084618-9.598855-20.017125-5.202631zM892.831803 83.621375a26.013157 26.013157 0 0 0 2.601315 9.624868 20.18621 20.18621 0 0 0 3.901974 5.332697 19.978105 19.978105 0 0 0 5.202631 3.836941 25.66198 25.66198 0 0 0 9.806961 2.601316c3.485763 0.364184 7.960026-1.911967 10.34023-4.292171a14.632401 14.632401 0 0 0 0-20.68046l-2.9655-2.289158a14.541355 14.541355 0 0 0-7.37473-2.003013h-0.390198l3.901974 0.520263a8.415256 8.415256 0 0 1-1.859941-0.520263l3.49877 1.469743a9.364737 9.364737 0 0 1-1.664842-0.9885l2.9655 2.289158a9.104605 9.104605 0 0 1-1.378698-1.365691l2.276151 2.9655a10.743434 10.743434 0 0 1-1.001506-1.651835l1.469743 3.485763a8.142118 8.142118 0 0 1-0.533269-1.846934l0.520263 3.901973v-0.390197a16.154171 16.154171 0 0 0-4.344198-10.405263 14.619394 14.619394 0 0 0-20.693466 0c-2.445237 2.601316-4.721388 6.581329-4.279164 10.34023zM273.536569 108.333874c-5.371717 0.572289-10.405263 1.755888-14.840507 5.007533a31.215789 31.215789 0 0 0-11.094611 14.697434c-1.300658 3.303671-0.247125 8.337217 1.469743 11.276704a14.619394 14.619394 0 0 0 20.017125 5.202631 17.012605 17.012605 0 0 0 6.724401-8.740421l0.247125-0.637322-1.469744 3.498769a16.076131 16.076131 0 0 1 1.729875-2.913473l-2.289157 2.9655a17.532868 17.532868 0 0 1 2.39321-2.419224l-2.9655 2.289158a16.661427 16.661427 0 0 1 3.511776-2.055039l-3.498769 1.469743a16.908552 16.908552 0 0 1 3.277657-0.871441l-3.901973 0.520263 0.676342-0.065033c3.99302-0.416211 7.41375-1.300658 10.34023-4.292171a14.606388 14.606388 0 0 0 0-20.680459c-2.679355-2.47125-6.503289-4.682368-10.34023-4.292171z" fill="#F2D384" /><path d="M815.273574 30.6846s90.187616 101.711445 115.407372 240.231507 18.937578 474.506001 18.937579 474.506001-50.998795 197.804048-108.539899 230.671671 65.722242 0 65.722242 0 88.444735-13.487822 130.859187-98.550846 72.628735-136.712148 72.628735-136.712147V270.916107s-33.817104-118.281826-154.778285-183.887008-140.236931-56.344499-140.236931-56.344499z" fill="#888888" opacity=".33" /><path d="M316.263179 108.906164c9.403756-7.166625 20.14719-9.533822 31.59298-11.614875q19.301763-3.49877 38.81163-5.696881a693.939989 693.939989 0 0 1 80.523729-4.305178c18.820519 0.065033 18.846532-29.199769 0-29.264802a693.042535 693.042535 0 0 0-87.976498 5.202632c-25.297795 3.147592-56.656656 4.357204-77.714307 20.420328-6.334204 4.825441-9.494802 12.551348-5.202632 20.017125 3.550796 6.217145 13.747954 10.028072 20.017125 5.202631zM258.383904 111.975716h-1.885953a15.100638 15.100638 0 0 0-10.405263 4.292171 10.977552 10.977552 0 0 0-3.030533 4.708382 11.159644 11.159644 0 0 0-1.300658 5.631848 14.775473 14.775473 0 0 0 4.292171 10.34023 15.191684 15.191684 0 0 0 10.405263 4.292171h1.885954a15.100638 15.100638 0 0 0 10.34023-4.292171 16.154171 16.154171 0 0 0 4.279164-10.34023 14.736454 14.736454 0 0 0-4.279164-10.405263 15.217697 15.217697 0 0 0-10.34023-4.292171z" fill="#F7F7F7" /></svg>