<?xml version="1.0" standalone="no"?><!DOCTYPE svg PUBLIC "-//W3C//DTD SVG 1.1//EN" "http://www.w3.org/Graphics/SVG/1.1/DTD/svg11.dtd"><svg t="1731802370043" class="icon" viewBox="0 0 1024 1024" version="1.1" xmlns="http://www.w3.org/2000/svg" p-id="9718" xmlns:xlink="http://www.w3.org/1999/xlink" width="256" height="256"><path d="M377.6 742.4v-6.4zM339.2 704c-19.2 0-38.4 19.2-38.4 38.4s19.2 38.4 38.4 38.4 38.4-19.2 38.4-38.4c0-25.6-19.2-38.4-38.4-38.4zM339.2 249.6c-19.2 0-38.4 12.8-38.4 32 0 25.6 19.2 38.4 38.4 38.4s38.4-19.2 38.4-38.4-19.2-32-38.4-32zM684.8 294.4c-19.2 0-38.4 19.2-38.4 38.4s19.2 38.4 38.4 38.4 38.4-19.2 38.4-38.4c0-25.6-19.2-38.4-38.4-38.4z" fill="#d81e06" p-id="9719"></path><path d="M512 0C230.4 0 0 230.4 0 512s230.4 512 512 512 512-230.4 512-512-230.4-512-512-512z m204.8 409.6v83.2c0 19.2-12.8 32-25.6 38.4l-320 102.4v19.2c25.6 6.4 44.8 25.6 51.2 51.2 12.8 44.8-6.4 89.6-51.2 108.8-51.2 19.2-96 0-115.2-44.8-12.8-44.8 6.4-89.6 51.2-108.8V364.8c-19.2-6.4-38.4-25.6-51.2-51.2-12.8-44.8 12.8-96 57.6-108.8s89.6 6.4 108.8 51.2-12.8 96-57.6 108.8v217.6l294.4-96V409.6c-38.4-6.4-57.6-44.8-57.6-76.8 0-44.8 38.4-83.2 83.2-83.2 38.4 0 70.4 19.2 76.8 57.6 19.2 38.4-6.4 89.6-44.8 102.4z" fill="#d81e06" p-id="9720"></path></svg>