<?xml version="1.0" standalone="no"?><!DOCTYPE svg PUBLIC "-//W3C//DTD SVG 1.1//EN" "http://www.w3.org/Graphics/SVG/1.1/DTD/svg11.dtd"><svg class="icon" width="256px" height="256.00px" viewBox="0 0 1024 1024" version="1.1" xmlns="http://www.w3.org/2000/svg"><path d="M142.363529 73.947819m52.642397-10.299406l0 0q52.642397-10.299406 62.941804 42.342991l77.715473 397.219872q10.299406 52.642397-42.342991 62.941804l0 0q-52.642397 10.299406-62.941804-42.342991l-77.715473-397.219872q-10.299406-52.642397 42.342991-62.941804Z" fill="#F7C900" /><path d="M290.033867 503.20916m14.884282-51.534046l112.311236-388.856667q14.884282-51.534046 66.418329-36.649764l0 0q51.534046 14.884282 36.649763 66.418328l-112.311236 388.856668q-14.884282 51.534046-66.418328 36.649764l0 0q-51.534046-14.884282-36.649764-66.418329Z" fill="#F7C900" /><path d="M510.001289 75.235485m53.414584-4.917513l0 0q53.414584-4.917512 58.332097 48.497073l37.105712 403.046508q4.917512 53.414584-48.497073 58.332097l0 0q-53.414584 4.917512-58.332096-48.497073l-37.105712-403.046508q-4.917512-53.414584 48.497072-58.332097Z" fill="#F7C900" /><path d="M677.370236 546.035703m14.884282-51.534046l112.311236-388.856668q14.884282-51.534046 66.418328-36.649764l0 0q51.534046 14.884282 36.649764 66.418329l-112.311236 388.856667q-14.884282 51.534046-66.418328 36.649764l0 0q-51.534046-14.884282-36.649764-66.418328Z" fill="#F7C900" /><path d="M554.78611 624.718733m11.746984-52.338401l88.638353-394.926023q11.746984-52.3384 64.085384-40.591416l0 0q52.3384 11.746984 40.591416 64.085384l-88.638353 394.926023q-11.746984 52.3384-64.085384 40.591416l0 0q-52.3384-11.746984-40.591416-64.085384Z" fill="#F7C900" /><path d="M407.913482 152.482866m53.414585-4.917512l0 0q53.414584-4.917512 58.332096 48.497072l41.049234 445.881501q4.917512 53.414584-48.497072 58.332097l0 0q-53.414584 4.917512-58.332097-48.497072l-41.049233-445.881501q-4.917512-53.414584 48.497072-58.332097Z" fill="#F7C900" /><path d="M264.664611 17.134599m53.640467 0l0 0q53.640468 0 53.640468 53.640468l0 447.767074q0 53.640468-53.640468 53.640467l0 0q-53.640468 0-53.640467-53.640467l0-447.767074q0-53.640468 53.640467-53.640468Z" fill="#F7C900" /><path d="M265.454104 549.41135c-22.884043 4.511393-42.271756-12.552952-46.760592-33.959514-1.477481-7.015217-2.763228-14.075547-4.127925-21.102042l-19.771182-101.043934L147.266876 150.344768c-4.624178-23.684815-14.143218-50.595277 7.962609-69.09199C179.399275 61.019179 214.464081 76.267688 220.813867 105.591745c1.026342 4.725685 1.86095 9.496483 2.785785 14.244725L267.935371 346.477596l22.421625 114.589393 6.541521 33.440703c1.985013 10.150635 3.383545 19.78246-0.631596 29.966931-5.35728 13.443952-16.974118 21.902815-30.812817 24.936727-16.692156 3.665507-9.631825 29.324057 7.07161 25.635993 36.452059-8.019002 58.039076-43.20787 51.621619-79.310296-0.992507-5.639242-2.188026-11.176977-3.282039-16.771105l-20.30127-103.829719-49.478708-252.874879c-1.477481-7.579141-2.853456-15.180839-4.443722-22.737423-5.72947-27.203702-27.485664-49.005011-55.264569-53.189328C156.075371 41.011149 120.988009 65.034319 115.123198 100.775833c-1.985013 12.12437 0 23.391575 2.255696 35.143755l45.89215 234.592457 23.323904 119.21357c5.763305 29.459399 8.729546 59.629342 37.388173 77.144828a67.930306 67.930306 0 0 0 48.497479 8.222014c16.816219-3.360988 9.710774-28.951867-7.026496-25.681107z" fill="#40210F" /><path d="M393.735576 394.659278l-21.102043 73.084573c-4.037697 13.996598-10.703281 26.290145-25.026955 32.177513a40.839389 40.839389 0 0 1-52.050201-20.211042c-7.387407-15.722206-1.500038-30.711311 2.921127-46.027491l18.609498-64.445255 54.283341-187.989763c11.334876-39.260401 22.365233-78.633587 34.015906-117.80376 10.703281-35.978362 62.189558-40.861946 76.592182-4.6129 5.424951 13.624408 1.127848 26.233753-2.650444 39.474692l-12.801078 44.346997-2.864735 9.925066c-4.75952 16.466586 20.887751 23.493081 25.624714 7.06033l10.229585-35.403159c3.620393-12.541674 8.368635-25.263803 10.624331-38.15511a67.806243 67.806243 0 0 0-29.617297-68.640851c-21.902815-14.402623-52.264493-14.05299-73.693612 0.958671-19.511776 13.635687-25.669828 33.215134-31.805323 54.463797l-20.684739 71.629649-58.467658 202.36983-21.756195 75.351548c-5.323444 18.451599-11.52661 35.876856-7.184394 55.535253 5.526457 24.970562 26.6285 45.429732 51.666733 50.358429a67.885192 67.885192 0 0 0 69.216053-28.399222c7.894938-11.583003 10.838623-26.211196 14.662029-39.474692l14.007876-48.497479 2.876014-9.947623c4.748242-16.466586-20.887751-23.493081-25.635994-7.06033z" fill="#40210F" /><path d="M586.011163 563.013201c-22.556967 2.075241-42.294313-13.432674-45.113934-36.034755-0.857165-6.846039-1.26319-13.782307-1.894785-20.650903l-9.51904-103.37858-22.726145-246.998789c-2.188026-23.808879-9.14685-52.422391 13.714636-68.900255 24.068284-17.380143 58.749621-2.548937 63.430191 26.560828 0.812051 4.951254 1.003785 10.060407 1.454925 15.045497l21.226106 230.678823 10.804787 117.386457 3.045191 33.091071c0.947393 10.308534 1.804557 20.30127-2.763229 30.11355a40.737882 40.737882 0 0 1-31.703817 23.087056c-7.128002 0.812051-13.286054 5.515178-13.286054 13.286054 0 6.552799 6.112938 14.109383 13.286054 13.286053 36.226489-4.150482 64.546761-34.13997 61.794811-71.61837-0.406025-5.560292-1.026342-11.098028-1.533874-16.647042l-9.654382-104.889896-23.684815-257.397551c-0.710544-7.748318-1.34214-15.519193-2.131633-23.267511-2.89857-28.331551-21.056929-52.873531-49.219302-60.509064-34.467046-9.338584-70.72737 10.962686-81.509601 44.809414-3.620393 11.346154-2.966241 22.489296-1.906063 33.99335l22.026878 239.442205 11.098028 120.679773 2.774507 30.136108c1.894785 20.571954 9.699496 38.89949 26.4706 51.76824 12.7898 9.789724 29.324057 15.079332 45.474846 13.590572 16.940282-1.646659 17.109459-28.241323 0.045114-26.662335zM708.089468 544.121741c-22.150942-6.3949-33.000843-29.436842-27.06836-50.94491 1.894785-6.91371 3.970026-13.771028 5.966318-20.662181l28.55712-98.912301 68.685965-237.851939c6.699419-23.222398 10.466433-51.644176 38.346844-58.490215 30.102272-7.409964 55.70443 21.665967 47.956111 50.629112-1.240633 4.669292-2.684279 9.29347-4.026418 13.940206l-64.061787 221.870328-32.448197 112.164518-9.451369 32.707602c-2.909849 10.060407-5.887368 19.353878-14.05299 26.786399-10.500268 9.564154-24.812664 12.293547-38.346844 8.718267-16.556814-4.364773-23.617144 21.27122-7.060331 25.635993a67.941585 67.941585 0 0 0 82.761512-45.948541c1.691773-5.436229 3.169254-10.951407 4.748242-16.421472l29.324057-101.652972 71.483028-247.551435c2.142912-7.409964 4.38733-14.808649 6.428736-22.252448 7.534027-27.542057-1.703051-56.685658-25.004398-73.671054-29.00826-21.147157-70.670978-14.481573-92.303109 13.872535-7.274622 9.530319-10.624331 20.30127-13.861256 31.512082L698.322302 337.263075l-33.700109 116.709748c-8.289685 28.703741-19.816296 57.599215-2.424874 86.088664a67.772407 67.772407 0 0 0 38.831819 29.696247c16.466586 4.748242 23.493081-20.887751 7.06033-25.635993z" fill="#40210F" /><path d="M586.349517 619.710138a40.873224 40.873224 0 0 1-31.106057-48.632821c1.466203-7.015217 3.135418-13.996598 4.714406-20.977979l22.556967-100.457453 54.21567-241.56256c5.188102-23.143448 7.331014-52.896088 34.128691-61.230887 29.132323-9.022787 57.824785 16.624485 51.881025 46.625251-0.936114 4.736963-2.120355 9.440091-3.169254 14.154497l-50.595277 225.377936-25.568323 113.912683-7.455077 33.24897c-2.255697 10.150635-4.511393 19.951637-12.056699 27.790183a40.839389 40.839389 0 0 1-37.546072 11.786015c-16.703434-3.383545-23.842714 22.263726-7.06033 25.624715 35.989641 7.218229 71.550699-13.646965 80.438144-49.884733 1.353418-5.526457 2.492545-11.120585 3.744457-16.669598l23.166005-103.243238 56.392417-251.397398c1.691773-7.534027 3.49633-15.056775 5.075318-22.613359 5.887368-28.072145-4.274545-56.290911-28.500728-72.419143-30.282728-20.15465-71.494307-10.466433-91.897084 18.74484-6.76709 9.66566-9.349863 20.594511-11.853686 31.794045l-52.253214 233.160089-26.662335 118.525584c-6.518963 29.053374-16.489143 58.806013 2.15419 86.178892a67.095698 67.095698 0 0 0 40.196516 27.790183c16.65832 3.744457 23.786322-21.880258 7.06033-25.624714z" fill="#40210F" /><path d="M487.854521 683.072658a41.110072 41.110072 0 0 1-45.113934-36.508451c-0.958671-7.973888-1.477481-16.026725-2.255697-24.011891l-10.500268-114.115696-24.812664-270.266301c-2.255697-24.31641-10.41004-56.020228 12.304826-73.310143 24.62093-18.699726 60.497786-2.932406 64.62571 27.282652 0.778215 5.706913 1.060177 11.515332 1.590266 17.244801l23.21112 252.94255 11.797293 128.236357 3.383545 37.433287c0.936114 10.150635 2.255697 20.075701-1.63538 29.910539a40.782996 40.782996 0 0 1-32.65121 25.196132c-7.128002 0.823329-13.286054 5.526457-13.286053 13.297332 0 6.54152 6.112938 14.109383 13.286053 13.286053 36.361831-4.173039 64.512926-34.230197 61.783533-71.76499-0.496253-6.76709-1.240633-13.466509-1.86095-20.188486l-10.737116-116.630798L511.279931 221.06086c-0.834608-9.124293-1.612823-18.259865-2.515102-27.37288-2.763228-28.015753-19.647118-51.881024-47.053833-60.565456-36.091147-11.504053-76.693688 11.60556-84.960816 48.655378-2.515102 11.188256-1.40981 21.587017-0.394747 32.707602l24.02317 261.096893 12.19204 132.465789c2.75195 29.933095 1.466203 64.355027 26.673614 85.547297 13.410117 11.278484 30.981994 17.684662 48.610264 16.060561 16.895168-1.556431 17.098181-28.151095 0-26.583386zM294.04506 554.949086c-23.188562 0-40.185237-19.173422-40.354414-41.662719-0.056392-8.041559 0-16.083117 0-24.113397V103.166871c0-24.722436-5.221938-56.392418 19.985473-71.178509 26.831512-15.722206 60.136874 4.421166 60.712077 34.88435 0.112785 5.763305 0 11.537889 0 17.312472v420.292688c0 9.868673 0.315798 19.297485-4.38733 28.466892-6.99266 13.658244-20.797524 21.654688-35.955806 22.004322-17.075624 0.383468-17.143295 26.966854 0 26.572107a67.919028 67.919028 0 0 0 66.926521-67.073142c0.135342-6.76709 0-13.53418 0-20.30127V95.858414c0-9.158129 0.056392-18.327536 0-27.496943-0.22557-28.072145-16.173345-53.268278-42.564996-63.768545-35.685122-14.233446-76.558346 5.943761-88.276691 42.192806-3.439937 10.658167-3.067748 21.598296-3.067747 32.583539v395.243176c0 30.451905-4.150482 63.554255 19.602004 87.306741a67.546838 67.546838 0 0 0 47.369631 19.602005c17.064346 0 17.098181-26.572107 0.011278-26.572107z" fill="#40210F" /><path d="M783.869599 1010.712604l-506.076834-1.973734a54.644253 54.644253 0 0 1-53.933708-47.426024L159.831106 479.992284a54.621696 54.621696 0 0 1 54.362291-61.828647l636.963635 2.492545a54.621696 54.621696 0 0 1 53.888594 62.144445l-66.85885 480.81303a54.621696 54.621696 0 0 1-54.317177 47.098947z" fill="#D5252B" /><path d="M851.134475 420.656182h-10.229585c-14.808649 42.576275-24.260018 86.844323-30.598525 131.439447-13.026648 91.806856-13.53418 184.843066-25.647272 276.751429a800.46781 800.46781 0 0 1-28.963146 133.401903c-4.939976 15.936497-9.767167 32.064729-13.974041 48.33958l42.147693 0.169177a54.621696 54.621696 0 0 0 54.317177-47.098947l66.836293-480.813031a54.621696 54.621696 0 0 0-53.888594-62.189558z" fill="#A42626" /><path d="M337.771741 995.802449c-29.955652-0.124063-59.94514 0.22557-89.900792-0.360911-10.804787-0.203013-20.944144-3.744457-28.872918-11.278484a41.267971 41.267971 0 0 1-10.421319-15.722206 46.320732 46.320732 0 0 1-1.364696-4.624178c-0.180456-0.721823-1.251912-5.718191-0.687988-2.503824 0-0.14662 0-0.293241-0.056392-0.43986-1.127848-6.76709-1.815836-13.635687-2.718115-20.436612l-29.978209-225.231316L164.455285 645.13184c-0.947393-7.105445-5.436229-13.286054-13.297332-13.286054-6.440014 0-14.244725 6.124217-13.286054 13.286054l24.632208 185.102471 14.413902 108.273442 2.943684 22.150941c3.620393 27.06836 20.741131 49.625327 47.121504 58.196975 17.684662 5.740748 39.282958 3.203089 57.520266 3.282039l53.211885 0.203013c17.098181 0.067671 17.120738-26.504436 0-26.572107z" fill="#40210F" /><path d="M337.771741 1022.374556c17.098181 0 17.132016-26.572107 0-26.572107s-17.132016 26.572107 0 26.572107zM451.684424 1022.87081c17.098181 0 17.120738-26.583386 0-26.583386s-17.132016 26.583386 0 26.583386z" fill="#40210F" /><path d="M506.351234 996.456601l-54.66681-0.214291c-17.109459-0.067671-17.132016 26.515715 0 26.583386l54.66681 0.214291c17.109459 0.067671 17.132016-26.515715 0-26.583386z" fill="#40210F" /><path d="M506.351234 1023.039987c17.109459 0 17.132016-26.583386 0-26.583386s-17.120738 26.583386 0 26.583386zM483.523583 432.622653l232.393153 0.913558c33.700109 0.135342 67.411496 0.169177 101.111605 0.394746 21.56446 0.135342 41.087515 13.026648 44.268047 35.662565a41.256693 41.256693 0 0 1 0.293241 5.898647c0-0.203013-0.451139 7.669369 0 3.778292v0.293241c-0.078949 0.800772-0.22557 1.590266-0.327076 2.391038-0.451139 3.383545-0.936114 6.76709-1.40981 10.082964l-34.963299 251.284613c-9.981458 71.84394-19.444106 143.778108-29.955653 215.554377-3.236925 22.038157-19.26365 38.256616-42.113857 38.549857-13.827421 0.169177-27.66612-0.112785-41.493541-0.169178l-137.744119-0.541367h-9.631825c-17.109459-0.067671-17.132016 26.515715 0 26.583386l114.792405 0.451139 64.027951 0.248127c23.267511 0.090228 45.497402-4.364773 61.636913-22.996828 18.304979-21.147157 18.474156-51.700568 22.139663-78.126055l18.451599-132.725194 38.617527-277.766492q1.725608-12.406332 3.383545-24.812664c3.981305-28.92931-8.03028-58.196975-34.749007-72.182294-14.233446-7.455078-28.793968-7.985166-44.200377-8.052838l-50.459935-0.214291-267.81887-1.048899h-6.191887c-17.109459-0.067671-17.132016 26.504436 0 26.572107zM383.325536 432.239185l50.12158 0.191734c17.109459 0.067671 17.132016-26.515715 0-26.583386l-50.12158-0.191734c-17.098181-0.067671-17.120738 26.515715 0 26.583386z" fill="#40210F" /><path d="M383.325536 432.239185c17.109459 0 17.132016-26.583386 0-26.583386s-17.132016 26.583386 0 26.583386zM269.412852 431.788046c17.109459 0 17.132016-26.583386 0-26.583386s-17.132016 26.583386 0 26.583386z" fill="#40210F" /><path d="M147.424775 516.98571c-3.473773-26.132246-13.771028-59.415051 11.808572-77.821536 10.308534-7.421242 21.688524-7.725761 33.733944-7.669369l43.174035 0.169177 33.305362 0.124064c17.109459 0.067671 17.132016-26.515715 0-26.583386L191.839443 404.900141c-15.530472-0.056392-30.553412 1.567709-44.110149 10.060407-20.650903 12.913864-33.835451 36.835527-32.154957 61.35495 0.902279 13.53418 3.485051 27.181145 5.27833 40.670212 0.947393 7.105445 5.424951 13.286054 13.286054 13.286054 6.451293 0 14.244725-6.124217 13.286054-13.286054z" fill="#40210F" /><path d="M830.506128 798.553051l27.463108-197.565196H145.293141l26.290145 197.565196H830.506128z" fill="#EDDF9B" /><path d="M843.307207 802.083216l24.090841-173.305177 3.383545-24.260018c1.127848-8.379913-3.293317-16.827497-12.823636-16.827498H233.141249c-28.793968 0-57.85862-1.127848-86.630032 0h-1.229354c-6.485128 0-14.244725 6.135495-13.286054 13.286054l23.064499 173.316456 3.225646 24.260018c0.947393 7.128002 5.323444 13.286054 13.286054 13.286054h577.593697c26.639778 0 53.572797 1.127848 80.190018 0h1.127849c17.109459 0 17.132016-26.572107 0-26.572108H198.55014c-8.391192 0-17.492928-1.015064-25.839005 0a9.597989 9.597989 0 0 1-1.127849 0l13.297332 13.286054L161.804841 625.247873l-3.236925-24.271296-13.286053 13.297332h683.588885c9.090458 0 18.835067 1.003785 27.880412 0a10.770952 10.770952 0 0 1 1.206797 0l-12.812357-16.827498-24.090841 173.316457-3.383545 24.260018c-0.992507 7.161837 1.748165 14.188332 9.282192 16.342522 6.203166 1.782 15.372573-2.176747 16.353801-9.282192z" fill="#40210F" /><path d="M198.944887 511.538202c-5.312166 69.565686 7.73704 138.725347 16.816219 207.524097 0.936114 7.116723 5.436229 13.297332 13.286054 13.297332 6.451293 0 14.244725-6.124217 13.297332-13.297332-9.079179-68.798749-22.128385-137.913296-16.827498-207.524097 1.308304-17.064346-25.28636-16.985396-26.572107 0zM222.539475 780.56387l2.255696 2.255696a13.680801 13.680801 0 0 0 9.394977 3.891077 14.662029 14.662029 0 0 0 9.394977-3.891077 13.365003 13.365003 0 0 0 3.891077-9.394976 13.804864 13.804864 0 0 0-3.891077-9.394977l-2.255697-2.255697a13.680801 13.680801 0 0 0-9.394977-3.891077 14.662029 14.662029 0 0 0-9.394976 3.891077 13.365003 13.365003 0 0 0-3.891077 9.394977 13.804864 13.804864 0 0 0 3.891077 9.394977z" fill="#FDFAFB" /></svg>