<?xml version="1.0" standalone="no"?><!DOCTYPE svg PUBLIC "-//W3C//DTD SVG 1.1//EN" "http://www.w3.org/Graphics/SVG/1.1/DTD/svg11.dtd"><svg class="icon" width="256px" height="256.00px" viewBox="0 0 1024 1024" version="1.1" xmlns="http://www.w3.org/2000/svg"><path d="M161.117357 87.195296m244.038668 0l242.726941 0q244.038668 0 244.038668 244.038667l0 435.032956q0 244.038668-244.038668 244.038667l-242.726941 0q-244.038668 0-244.038668-244.038667l0-435.032956q0-244.038668 244.038668-244.038667Z" fill="#CBE7DE" /><path d="M183.946001 178.912596c16.84533 0 16.879849-26.188505 0-26.188505s-16.891356 26.188505 0 26.188505zM123.76767 297.946026c16.856837 0 16.879849-26.200012 0-26.200012s-16.879849 26.200012 0 26.200012z" fill="#40210F" /><path d="M193.231644 175.046454c45.139502-48.407312 107.00927-74.733893 173.078865-74.791425h228.723685c15.476072 0 30.929131 0.115064 46.267126 2.577428a234.626455 234.626455 0 0 1 89.876281 34.242966c53.976396 34.634183 91.234033 91.314577 102.533291 154.334983 4.522005 25.22197 3.359861 51.214867 3.359861 76.747509v373.519884c0 32.045249-0.932016 63.193001-10.677914 94.237196-19.100579 60.914739-63.906396 111.554288-121.323199 139.135064a228.320962 228.320962 0 0 1-94.007068 22.103743c-9.400707 0.184102-18.801414 0-28.190614 0-73.146014 0-146.303534 0.310672-219.449549 0a232.83146 232.83146 0 0 1-169.661472-74.193094c-39.731506-42.757683-61.110348-99.334519-61.294449-157.522248-0.207115-67.001611 0-134.003221 0-201.004832V338.172306c0-16.730267 0.874484-33.368482 3.935179-49.845608s-22.184287-23.542039-25.314021-6.961356c-5.672642 30.595446-4.878702 61.121854-4.878702 92.050985v376.557567c0 40.709548 4.775145 80.038332 20.976119 117.894299 26.591228 61.996338 77.587474 111.278135 139.882978 136.787764a257.67372 257.67372 0 0 0 96.377381 18.743882h168.073592c31.930185 0 64.642804 1.864032 96.503952-0.978042 67.715006-6.02934 131.747972-38.753465 175.265075-91.222526a260.435249 260.435249 0 0 0 59.925192-166.140521V413.435493v-79.589583c0-55.966999-17.029432-111.013488-50.789131-155.922862-40.698042-54.137486-101.635794-91.544705-168.959583-101.025956-33.920788-4.775145-69.038239-2.796049-103.177648-2.796049H364.446476a258.145481 258.145481 0 0 0-96.653534 18.410197 261.689444 261.689444 0 0 0-93.052039 64.044473c-11.506373 12.323326 6.995875 30.883105 18.513754 18.525261z" fill="#40210F" /><path d="M250.280242 13.094253h538.831948v87.563499H250.280242z" fill="#C8C9CA" /><path d="M467.00278 26.200012c16.856837 0 16.879849-26.200012 0-26.200012s-16.879849 26.200012 0 26.200012z" fill="#40210F" /><path d="M614.284356 26.200012h139.905991l-13.094252-13.105759v87.563499l13.094252-13.059733H215.3584l13.094252 13.094252V13.094253L215.3584 26.200012h69.947242c16.84533 0 16.879849-26.200012 0-26.200012H215.3584a13.289861 13.289861 0 0 0-13.105759 13.094253v87.563499a13.289861 13.289861 0 0 0 13.105759 13.094253h538.831947a13.278355 13.278355 0 0 0 13.128772-13.094253v-87.563499A13.278355 13.278355 0 0 0 754.224866 0H614.284356c-16.856837 0-16.879849 26.200012 0 26.200012z" fill="#40210F" /><path d="M614.284356 26.200012c16.856837 0 16.879849-26.200012 0-26.200012s-16.879849 26.200012 0 26.200012zM536.996048 26.200012c16.84533 0 16.879849-26.200012 0-26.200012s-16.879849 26.200012 0 26.200012z" fill="#40210F" /><path d="M467.00278 26.200012h69.947242c16.84533 0 16.879849-26.200012 0-26.200012h-69.947242c-16.856837 0-16.879849 26.200012 0 26.200012z" fill="#40210F" /><path d="M285.294136 899.579758m-69.947243 0a69.947242 69.947242 0 1 0 139.894485 0 69.947242 69.947242 0 1 0-139.894485 0Z" fill="#036EB7" /><path d="M342.147125 899.579758c-0.402723 23.38095-14.567068 45.243059-36.900938 53.29752a57.635423 57.635423 0 0 1-64.02146-17.25956c-15.130881-18.410197-16.822318-45.035944-4.60255-65.356199 12.058679-20.078621 36.509722-31.285829 59.603013-26.464658a57.531866 57.531866 0 0 1 45.944948 55.828922c0.287659 16.84533 26.464658 16.891356 26.200012 0a84.330209 84.330209 0 0 0-55.046489-78.13978c-32.217845-11.943615-70.453523-1.288714-92.050985 25.394566-21.781564 26.913407-25.233476 65.390719-7.260522 95.318795s52.79124 45.070464 86.838598 38.972086c39.179201-7.007381 66.840522-42.435504 67.519398-81.545667 0.264647-16.937381-25.923859-16.937381-26.223025-0.046025z" fill="#40210F" /><path d="M682.310034 830.599051m-71.880313 0a71.880313 71.880313 0 1 0 143.760626 0 71.880313 71.880313 0 1 0-143.760626 0Z" fill="#036EB7" /><path d="M741.096095 830.599051c-0.402723 24.163384-15.03883 46.531773-38.028564 55.057995a59.510962 59.510962 0 0 1-66.138632-17.627763c-15.706199-18.858946-17.63927-46.393696-5.177868-67.41584 12.346338-20.803523 37.349687-32.563036 61.282943-27.85693a59.58 59.58 0 0 1 48.062121 57.842538c0.276153 16.84533 26.464658 16.891356 26.188505 0a86.297798 86.297798 0 0 0-56.174114-79.911762c-32.919734-12.357845-71.98387-1.403778-94.145145 25.693732-22.633036 27.684334-26.119467 67.691993-7.249015 98.402503 18.674844 30.388331 54.264056 45.530718 89.11686 39.121668 39.789038-7.295041 67.79555-43.632167 68.451414-83.317647 0.276153-16.84533-25.912352-16.84533-26.188505 0.011506z" fill="#40210F" /><path d="M597.611622 689.738031m-69.947243 0a69.947242 69.947242 0 1 0 139.894485 0 69.947242 69.947242 0 1 0-139.894485 0Z" fill="#036EB7" /><path d="M654.464611 689.749537c-0.402723 23.357937-14.567068 45.174021-36.900938 53.286014a57.623917 57.623917 0 0 1-64.02146-17.259559c-15.142387-18.410197-16.833824-45.035944-4.60255-65.344693 12.058679-20.090127 36.498216-31.297335 59.603013-26.464659a57.61241 57.61241 0 0 1 45.944948 55.840429c0.287659 16.833824 26.464658 16.879849 26.188505 0a84.307196 84.307196 0 0 0-55.034982-78.151286c-32.217845-11.943615-70.453523-1.288714-92.050985 25.394565-21.781564 26.913407-25.244983 65.390719-7.272028 95.318795s52.79124 45.070464 86.850104 38.972086c39.121669-7.007381 66.840522-42.435504 67.507891-81.53416 0.264647-16.925875-25.923859-16.925875-26.211518-0.057532z" fill="#40210F" /><path d="M440.802769 923.927243m-69.947243 0a69.947242 69.947242 0 1 0 139.894485 0 69.947242 69.947242 0 1 0-139.894485 0Z" fill="#009844" /><path d="M497.644252 923.93875c-0.402723 23.357937-14.567068 45.174021-36.889432 53.286014a57.635423 57.635423 0 0 1-64.032967-17.25956c-15.130881-18.410197-16.822318-45.035944-4.602549-65.344693 12.070185-20.090127 36.509722-31.297335 59.603013-26.464658a57.589398 57.589398 0 0 1 45.944948 55.840429c0.299166 16.833824 26.464658 16.879849 26.200011 0a84.341715 84.341715 0 0 0-55.034982-78.151287c-32.217845-11.943615-70.465029-1.288714-92.050986 25.394566-21.793071 26.913407-25.244983 65.390719-7.272027 95.330301s52.79124 45.058957 86.850104 38.96058c39.121669-7.007381 66.829015-42.435504 67.507891-81.53416 0.264647-16.925875-25.923859-16.925875-26.223024-0.057532z" fill="#40210F" /><path d="M684.243105 566.953523m-69.947242 0a69.947242 69.947242 0 1 0 139.894484 0 69.947242 69.947242 0 1 0-139.894484 0Z" fill="#009844" /><path d="M741.096095 566.953523c-0.402723 23.357937-14.567068 45.185527-36.900939 53.297521a57.635423 57.635423 0 0 1-64.02146-17.25956c-15.142387-18.410197-16.833824-45.035944-4.602549-65.356199 12.058679-20.078621 36.498216-31.285829 59.603012-26.464659a57.635423 57.635423 0 0 1 45.944948 55.840429c0.287659 16.833824 26.464658 16.891356 26.188506 0a84.307196 84.307196 0 0 0-55.034983-78.13978c-32.217845-11.955122-70.453523-1.288714-92.050985 25.383059-21.781564 26.913407-25.244983 65.402225-7.272028 95.330302s52.79124 45.070464 86.850104 38.972086c39.121669-7.018888 66.840522-42.435504 67.507892-81.545667 0.264647-16.856837-25.923859-16.925875-26.211518-0.057532z" fill="#40210F" /><path d="M204.738017 758.730244m-71.880313 0a71.880313 71.880313 0 1 0 143.760626 0 71.880313 71.880313 0 1 0-143.760626 0Z" fill="#009844" /><path d="M263.524078 758.730244c-0.402723 24.163384-15.027323 46.520267-38.028563 55.046489a59.522468 59.522468 0 0 1-66.138633-17.616257c-15.706199-18.870452-17.627764-46.405203-5.166362-67.427346 12.334832-20.803523 37.338181-32.563036 61.271437-27.85693a59.568494 59.568494 0 0 1 48.062121 57.854044c0.276153 16.833824 26.464658 16.879849 26.188505 0a86.297798 86.297798 0 0 0-56.174114-79.923267c-32.908227-12.346338-71.98387-1.392271-94.145145 25.705237-22.633036 27.672827-26.107961 67.715006-7.226002 98.390997 18.674844 30.399838 54.264056 45.530718 89.128366 39.121668 39.777532-7.295041 67.784044-43.632167 68.439908-83.306141 0.264647-16.856837-25.935365-16.856837-26.211518 0.011506z" fill="#40210F" /><path d="M389.311749 806.815378m-71.880313 0a71.880313 71.880313 0 1 0 143.760626 0 71.880313 71.880313 0 1 0-143.760626 0Z" fill="#E73828" /><path d="M448.086303 806.815378c-0.391217 24.163384-15.027323 46.531773-37.971032 55.046489a59.522468 59.522468 0 0 1-66.230683-17.616258c-15.706199-18.858946-17.627764-46.393696-5.166362-67.41584 12.334832-20.815029 37.349687-32.563036 61.271437-27.856929a59.556987 59.556987 0 0 1 48.062121 57.842538c0.287659 16.84533 26.464658 16.891356 26.200011 0a86.297798 86.297798 0 0 0-56.174113-79.911762c-32.919734-12.357845-71.995377-1.403778-94.145145 25.693731-22.62153 27.684334-26.073442 67.691993-7.214496 98.402503 18.663337 30.388331 54.264056 45.530718 89.11686 39.121669 39.789038-7.295041 67.79555-43.632167 68.451413-83.317648 0.276153-16.84533-25.912352-16.856837-26.200011 0.011507z" fill="#40210F" /><path d="M580.697253 923.927243m-69.947242 0a69.947242 69.947242 0 1 0 139.894484 0 69.947242 69.947242 0 1 0-139.894484 0Z" fill="#FAED00" /><path d="M637.538736 923.93875c-0.402723 23.357937-14.567068 45.174021-36.889432 53.286014a57.635423 57.635423 0 0 1-64.032966-17.25956c-15.130881-18.410197-16.822318-45.035944-4.60255-65.344693 12.070185-20.090127 36.509722-31.297335 59.603013-26.464658a57.589398 57.589398 0 0 1 45.944948 55.840429c0.299166 16.833824 26.464658 16.879849 26.200012 0a84.330209 84.330209 0 0 0-55.046489-78.151287c-32.217845-11.943615-70.453523-1.288714-92.050985 25.394566-21.793071 26.913407-25.244983 65.390719-7.272028 95.330301s52.79124 45.058957 86.850104 38.96058c39.121669-7.007381 66.829015-42.435504 67.507891-81.53416 0.276153-16.925875-25.912352-16.925875-26.211518-0.057532z" fill="#40210F" /><path d="M452.366674 689.738031m-69.947243 0a69.947242 69.947242 0 1 0 139.894485 0 69.947242 69.947242 0 1 0-139.894485 0Z" fill="#FAED00" /><path d="M509.219663 689.749537c-0.402723 23.357937-14.567068 45.174021-36.900938 53.286014a57.623917 57.623917 0 0 1-64.021461-17.259559c-15.130881-18.410197-16.822318-45.035944-4.602549-65.344693 12.058679-20.090127 36.498216-31.297335 59.603013-26.464659a57.589398 57.589398 0 0 1 45.944948 55.840429c0.287659 16.833824 26.464658 16.879849 26.200012 0a84.330209 84.330209 0 0 0-55.046489-78.151286c-32.217845-11.943615-70.453523-1.288714-92.050986 25.394565-21.781564 26.913407-25.244983 65.390719-7.260521 95.318795s52.79124 45.070464 86.838598 38.972086c39.179201-7.007381 66.840522-42.435504 67.519398-81.53416 0.264647-16.925875-25.935365-16.925875-26.223025-0.057532z" fill="#40210F" /><path d="M202.816453 619.790789m-69.947242 0a69.947242 69.947242 0 1 0 139.894484 0 69.947242 69.947242 0 1 0-139.894484 0Z" fill="#FAED00" /><path d="M259.657936 619.802295c-0.402723 23.357937-14.567068 45.174021-36.889432 53.286014a57.61241 57.61241 0 0 1-64.02146-17.25956c-15.142387-18.410197-16.833824-45.035944-4.602549-65.344693 12.070185-20.090127 36.509722-31.297335 59.603013-26.464658a57.589398 57.589398 0 0 1 45.944947 55.840429c0.299166 16.833824 26.464658 16.879849 26.200012 0a84.341715 84.341715 0 0 0-55.034983-78.151286c-32.217845-11.943615-70.465029-1.288714-92.050985 25.394565-21.793071 26.913407-25.244983 65.390719-7.272027 95.318795s52.79124 45.070464 86.850104 38.972086c39.121669-7.007381 66.829015-42.435504 67.507891-81.53416 0.25314-16.925875-25.935365-16.925875-26.234531-0.057532z" fill="#40210F" /><path d="M754.190347 689.738031m-69.947242 0a69.947242 69.947242 0 1 0 139.894484 0 69.947242 69.947242 0 1 0-139.894484 0Z" fill="#F29600" /><path d="M811.043337 689.749537c-0.402723 23.357937-14.567068 45.174021-36.900939 53.286014a57.623917 57.623917 0 0 1-64.02146-17.259559c-15.142387-18.410197-16.833824-45.035944-4.602549-65.344693 12.058679-20.090127 36.498216-31.297335 59.603013-26.464659a57.61241 57.61241 0 0 1 45.921935 55.782897c0.287659 16.833824 26.464658 16.879849 26.188505 0a84.318702 84.318702 0 0 0-55.034983-78.151286c-32.217845-11.943615-70.453523-1.288714-92.050985 25.394566-21.781564 26.913407-25.233476 65.390719-7.272027 95.318795s52.79124 45.070464 86.850104 38.972085c39.121669-7.007381 66.840522-42.435504 67.507891-81.53416 0.276153-16.868343-25.900846-16.868343-26.188505 0z" fill="#40210F" /><path d="M720.580231 876.440441m-69.947242 0a69.947242 69.947242 0 1 0 139.894485 0 69.947242 69.947242 0 1 0-139.894485 0Z" fill="#F29600" /><path d="M777.433221 876.440441c-0.402723 23.357937-14.567068 45.174021-36.889432 53.297521a57.658436 57.658436 0 0 1-64.032967-17.25956c-15.130881-18.410197-16.822318-45.024438-4.602549-65.344693 12.058679-20.078621 36.509722-31.297335 59.603013-26.464658a57.61241 57.61241 0 0 1 45.944948 55.840429c0.299166 16.833824 26.464658 16.891356 26.200011 0a84.330209 84.330209 0 0 0-55.046489-78.151287c-32.217845-11.943615-70.453523-1.277207-92.050985 25.394566-21.781564 26.913407-25.233476 65.402225-7.260521 95.330301s52.79124 45.058957 86.850104 38.96058c39.121669-7.007381 66.829015-42.423998 67.507891-81.53416 0.264647-16.937381-25.923859-16.937381-26.223024-0.069039z" fill="#40210F" /><path d="M521.174785 806.815378m-71.880313 0a71.880313 71.880313 0 1 0 143.760626 0 71.880313 71.880313 0 1 0-143.760626 0Z" fill="#F29600" /><path d="M579.949339 806.815378c-0.391217 24.163384-15.027323 46.531773-37.971031 55.046489a59.522468 59.522468 0 0 1-66.15014-17.616258c-15.729212-18.858946-17.673789-46.393696-5.212387-67.41584 12.334832-20.815029 37.349687-32.563036 61.271437-27.856929a59.556987 59.556987 0 0 1 48.062121 57.842538c0.276153 16.84533 26.464658 16.891356 26.200011 0a86.297798 86.297798 0 0 0-56.174113-79.911762c-32.919734-12.357845-71.995377-1.403778-94.145145 25.693731-22.633036 27.684334-26.119467 67.691993-7.249015 98.402503 18.663337 30.388331 54.264056 45.530718 89.11686 39.121669 39.789038-7.295041 67.79555-43.632167 68.451413-83.317648 0.276153-16.84533-25.923859-16.856837-26.200011 0.011507z" fill="#40210F" /><path d="M312.472189 666.598715m-69.947242 0a69.947242 69.947242 0 1 0 139.894484 0 69.947242 69.947242 0 1 0-139.894484 0Z" fill="#E73828" /><path d="M369.325179 666.598715c-0.402723 23.357937-14.567068 45.185527-36.900939 53.29752a57.658436 57.658436 0 0 1-64.02146-17.25956c-15.130881-18.410197-16.822318-45.035944-4.602549-65.356199 12.058679-20.078621 36.509722-31.297335 59.603013-26.464658a57.61241 57.61241 0 0 1 45.944947 55.840429c0.287659 16.833824 26.464658 16.891356 26.200012 0a84.330209 84.330209 0 0 0-55.115527-78.208819c-32.217845-11.943615-70.453523-1.277207-92.050985 25.394566-21.781564 26.913407-25.233476 65.402225-7.260522 95.330301s52.79124 45.070464 86.838598 38.972086c39.179201-7.018888 66.840522-42.435504 67.519398-81.545666 0.333685-16.868343-25.866327-16.868343-26.153986 0z" fill="#40210F" /><path d="M536.996048 566.953523m-69.947242 0a69.947242 69.947242 0 1 0 139.894484 0 69.947242 69.947242 0 1 0-139.894484 0Z" fill="#E73828" /><path d="M593.837531 566.953523c-0.402723 23.357937-14.567068 45.185527-36.889432 53.297521a57.635423 57.635423 0 0 1-64.02146-17.25956c-15.142387-18.410197-16.833824-45.035944-4.602549-65.356199 12.070185-20.078621 36.509722-31.285829 59.603012-26.464659a57.61241 57.61241 0 0 1 45.944948 55.840429c0.299166 16.833824 26.464658 16.891356 26.200012 0a84.318702 84.318702 0 0 0-55.034983-78.13978c-32.217845-11.955122-70.465029-1.288714-92.050985 25.383059-21.793071 26.913407-25.244983 65.402225-7.272028 95.330302s52.79124 45.070464 86.850105 38.972086c39.121669-7.018888 66.829015-42.435504 67.507891-81.545667 0.25314-16.856837-25.935365-16.925875-26.234531-0.057532z" fill="#40210F" /><path d="M169.010729 324.203569m20.953105 0l675.40109 0q20.953105 0 20.953106 20.953106l0 303.699212q0 20.953105-20.953106 20.953106l-675.40109 0q-20.953105 0-20.953105-20.953106l0-303.699212q0-20.953105 20.953105-20.953106Z" fill="#F2C4C5" /><path d="M765.995886 784.044265m-69.947242 0a69.947242 69.947242 0 1 0 139.894484 0 69.947242 69.947242 0 1 0-139.894484 0Z" fill="#E73828" /><path d="M822.848876 784.044265c-0.402723 23.357937-14.567068 45.174021-36.900939 53.297521a57.646929 57.646929 0 0 1-64.02146-17.25956c-15.130881-18.410197-16.822318-45.035944-4.602549-65.344693 12.058679-20.090127 36.498216-31.297335 59.603013-26.464658a57.600904 57.600904 0 0 1 45.944947 55.840428c0.287659 16.833824 26.464658 16.879849 26.188506 0a84.307196 84.307196 0 0 0-55.034983-78.151286c-32.217845-11.943615-70.453523-1.288714-92.050985 25.394566-21.781564 26.913407-25.244983 65.390719-7.272028 95.330301s52.79124 45.058957 86.850105 38.960579c39.121669-7.007381 66.840522-42.435504 67.507891-81.53416 0.276153-16.937381-25.923859-16.937381-26.211518-0.069038zM824.218134 663.538019H155.870451c-5.062804 0-11.828552 1.035574-14.302422-4.740625-2.577428-6.006327-0.609838-16.108922-0.609838-22.333871V443.398089c0-29.824519-1.484322-60.063268 0-89.853268 0.345191-6.823279 4.498992-9.412213 10.689421-9.42372h621.884948c16.396582 0 33.161367-1.035574 49.477405 0 7.870359 0.494774 9.020997 5.937289 9.020996 12.449896v286.508691c0 6.961356 2.301275 19.883013-7.858852 20.435319-16.764786 0.909003-16.868343 27.109015 0 26.188505 19.008528-1.035574 33.253418-14.87774 34.047358-34.058865 0.092051-2.117173 0-4.257358 0-6.37453V358.642144c0-2.209224 0.092051-4.44146 0-6.650684-0.736408-17.89241-13.669571-32.413453-31.769097-33.9438-4.165307-0.345191-8.422665-0.12657-12.599478-0.12657H322.885457c-57.152155 0-114.33883-0.552306-171.44496 0-19.894519 0.195608-35.78482 13.508482-36.636292 34.07037-0.322178 7.789815 0 15.67168 0 23.461495v257.236478c0 7.640232-0.322178 15.349502 0 23.012746 0.851472 20.573395 16.730267 33.863256 36.636292 34.058865 57.658436 0.563812 115.362897 0 173.032839 0h499.744798c16.856837-0.034519 16.879849-26.223024 0-26.223025z" fill="#40210F" /><path d="M696.048644 114.131715s112.762457 51.640603 128.088945 132.461368 11.805539 440.256849 11.805539 440.256848 22.276338 136.097381-11.805539 189.187787-103.557358 93.489282-103.557358 93.489282 52.492074-258.191507 49.040163-453.512191 3.889154-231.15153-15.372515-309.832109c-15.245944-62.019351-58.199235-92.050985-58.199235-92.050985z" fill="#888888" opacity=".44" /><path d="M281.819211 167.38321c-23.933256 38.454299-53.078899 76.770522-65.298668 120.954994-11.748007 42.44701-10.114102 87.195296-8.21555 130.735412 0.736408 16.787798 26.93642 16.879849 26.200012 0-1.794994-41.204322-3.820116-83.593801 7.272028-123.774056 5.546072-20.124647 15.073349-38.028563 25.969884-55.725365 12.139224-19.710417 24.451043-39.317277 36.693824-58.970162 8.928946-14.348447-13.727103-27.511738-22.62153-13.220823zM211.848956 502.368251q-1.035574 16.016871-0.586825 32.045249c0.471761 16.810811 26.211518 16.914369 26.200012 0v-29.042086c0-16.856837-26.188505-16.879849-26.188506 0v24.071333c0 16.856837 26.188505 16.891356 26.188506 0v-24.071333H211.239118v29.042086h26.200012q-0.448749-16.108922 0.586825-32.045249c0.448749-7.064913-6.351518-13.094253-13.105759-13.094253-7.467636 0-12.65701 6.006327-13.094253 13.094253z" fill="#F7F7F7" /></svg>